<?xml version="1.0" encoding="UTF-8" standalone="no"?>
<!-- Creator: CorelDRAW -->
<svg
   xmlns:dc="http://purl.org/dc/elements/1.1/"
   xmlns:cc="http://web.resource.org/cc/"
   xmlns:rdf="http://www.w3.org/1999/02/22-rdf-syntax-ns#"
   xmlns:svg="http://www.w3.org/2000/svg"
   xmlns="http://www.w3.org/2000/svg"
   xmlns:sodipodi="http://sodipodi.sourceforge.net/DTD/sodipodi-0.dtd"
   xmlns:inkscape="http://www.inkscape.org/namespaces/inkscape"
   xml:space="preserve"
   width="11in"
   height="8.5in"
   style="shape-rendering:geometricPrecision; text-rendering:geometricPrecision; image-rendering:optimizeQuality; fill-rule:evenodd; clip-rule:evenodd"
   viewBox="0 0 11 8.5"
   id="svg2082"
   sodipodi:version="0.32"
   inkscape:version="0.44"
   sodipodi:docname="GNUNewLogo_Button002.svg"
   sodipodi:docbase="/media/STORAGE_01/Files_Design/Projects/GNU &amp; OSS"><metadata
   id="metadata2114"><rdf:RDF><cc:Work
       rdf:about=""><dc:format>image/svg+xml</dc:format><dc:type
         rdf:resource="http://purl.org/dc/dcmitype/StillImage" /><cc:license
         rdf:resource="http://creativecommons.org/licenses/GPL/2.0/" /></cc:Work><cc:License
       rdf:about="http://creativecommons.org/licenses/GPL/2.0/"><cc:permits
         rdf:resource="http://web.resource.org/cc/Reproduction" /><cc:permits
         rdf:resource="http://web.resource.org/cc/Distribution" /><cc:requires
         rdf:resource="http://web.resource.org/cc/Notice" /><cc:permits
         rdf:resource="http://web.resource.org/cc/DerivativeWorks" /><cc:requires
         rdf:resource="http://web.resource.org/cc/ShareAlike" /><cc:requires
         rdf:resource="http://web.resource.org/cc/SourceCode" /></cc:License></rdf:RDF></metadata><sodipodi:namedview
   inkscape:window-height="626"
   inkscape:window-width="914"
   inkscape:pageshadow="2"
   inkscape:pageopacity="0.0"
   guidetolerance="10.0"
   gridtolerance="10.0"
   objecttolerance="10.0"
   borderopacity="1.0"
   bordercolor="#666666"
   pagecolor="#ffffff"
   id="base"
   inkscape:zoom="0.53202614"
   inkscape:cx="495"
   inkscape:cy="382.5"
   inkscape:window-x="5"
   inkscape:window-y="48"
   inkscape:current-layer="svg2082" />
 <defs
   id="defs2084">
  <style
   type="text/css"
   id="style2086">
   
    .fil4 {fill:black}
    .fil3 {fill:#666666}
    .fil2 {fill:#002940}
    .fil0 {fill:#5C788F}
    .fil6 {fill:#D4D6D9}
    .fil7 {fill:#ED6E00}
    .fil1 {fill:white}
    .fil5 {fill:#002940;fill-rule:nonzero}
    .fil8 {fill:#052638;fill-rule:nonzero}
   
  </style>
 </defs>
 <g
   id="Layer_x0020_1"
   inkscape:export-xdpi="114.28554"
   inkscape:export-ydpi="114.28554">
  <metadata
   id="CorelCorpID_0Corel-Layer" />
  <path
   class="fil0"
   d="M2.07982 2.85209l3.97617 0 -0.00096063 0.00311811c0.433528,1.14257 -0.64724,1.69572 -0.191524,2.99613l0.00352756 0.000755906 -3.78722 0c-0.146713,0 -0.266772,-0.120047 -0.266772,-0.266772l0 -2.46646c0,-0.146724 0.120047,-0.266772 0.266772,-0.266772z"
   id="path2090" />
  <path
   class="fil1"
   d="M2.34235 4.99398c0.0372874,-0.030685 0.0772795,-0.0681417 0.100787,-0.116669 0.016748,-0.0345787 0.0224921,-0.0694921 0.00803937,-0.101811 0.044315,0.0699685 -0.0241772,0.154854 -0.0397835,0.222768 -0.0155866,0.093252 0.0317087,0.138996 0.0736732,0.190835 -0.0234843,-0.0442283 -0.0217165,-0.133563 0.0258268,-0.195232 0.125213,-0.00525197 0.204882,-0.0653228 0.248055,-0.214709 0.00683465,-0.0236614 0.0300354,-0.138008 0.0735669,-0.100409 0.0363425,0.0313819 -0.0442283,0.161193 -0.106461,0.223713 0.0645433,-0.0182008 0.12548,-0.0319764 0.170693,-0.0856142 -0.102154,0.132043 -0.100917,0.276638 -0.0112126,0.399787 -0.0312362,-0.19039 0.0828386,-0.342118 0.278835,-0.337693 -0.0404409,-0.107665 0.0938504,-0.209429 0.101201,-0.12702 0.00499606,0.117752 0.0512992,0.210228 0.0801378,0.250591 -0.0413543,-0.262819 0.0443543,-0.634354 0.291319,-0.772354 -0.0551102,-0.133969 -0.0335433,-0.21635 0.0330787,-0.344161 -0.116126,-0.0217795 -0.220382,-0.0481063 -0.329291,-0.0852126 -0.0610945,-0.020815 -0.125992,-0.0543661 -0.189587,-0.0696732 -0.0478268,-0.0101575 -0.0946024,-0.0159488 -0.143539,-0.0162953 0.0531024,-0.0487874 0.068626,-0.127689 0.0689882,-0.196783 -0.00280709,-0.151787 0.00381496,-0.146209 0.173496,-0.190799 -0.115657,-0.0131732 -0.197315,-0.0299094 -0.265248,0.077063 -0.036252,0.0639173 -0.0274213,0.135307 -0.0578976,0.199748 -0.0657992,-0.00984646 -0.117732,-0.0702402 -0.182394,-0.0906063 -0.0950433,-0.0299055 -0.18489,0.028122 -0.248205,0.0923583 -0.0260866,0.0264685 -0.0492323,0.0566299 -0.0865315,0.0328307 -0.133992,-0.0855 -0.0447756,-0.249024 0.0627874,-0.314362l0.104587 -0.0561496c-0.0527087,0.00585827 -0.105728,0.00658661 -0.155783,0.0245945 -0.163606,0.0675236 -0.316417,0.282748 -0.14737,0.422709 -0.0505512,0.0554685 -0.0647323,0.140346 -0.116102,0.201717 -0.00823228,0.00983465 -0.0128661,0.0114606 -0.0106063,0.0254803 0.0222559,0.0673465 0.010252,0.068122 0.0015,0.101169 -0.0127992,0.0483031 -0.0394055,0.0954449 -0.0536732,0.142654 -0.035,0.115787 -0.0554134,0.235965 -0.0747677,0.355165 -0.0120039,0.0739606 -0.0657008,0.270748 0.00352756,0.295114 0.00187795,0.0530472 0.0795669,0.0787677 0.123087,0.0529449 0.0462283,0.0207126 0.0782362,0.046315 0.120665,0.0295079 0.0124724,-0.00581102 0.0317953,-0.026626 0.0495118,-0.045248 0.0145039,-0.0152441 0.0431693,-0.0710039 0.057752,-0.0152402 0.0105315,0.040252 -0.010311,0.0985787 -0.0326614,0.135295z"
   id="path2092" />
  <path
   class="fil2"
   d="M2.20783 4.74041c-0.0191496,0.0464724 -0.0639882,0.0411378 -0.069126,-0.00444094 -0.00313386,-0.0277795 0.0211732,-0.0249803 0.0186496,-0.00379528 -0.00325984,0.027315 0.0180039,0.0498701 0.0504764,0.00823622zm0.0145433 -0.144063c-0.0774252,0.0114843 -0.116764,0.0624291 -0.135587,0.129413 0.069937,-0.121445 0.153567,-0.0446811 0.0957008,0.0134606 0.0422795,-0.0136299 0.0551299,-0.0855866 0.00305512,-0.101854 0,0 -0.0248031,-0.0108976 0.0368307,-0.0410197zm0.4195 -0.050189c0.0749764,-0.0426378 0.162295,-0.0137874 0.206031,0.0446575 -0.117866,0.00275197 -0.14372,0.134862 -0.159327,0.183752 -0.000964567,-0.0854764 -0.0222992,-0.119732 -0.0758031,-0.152138 0.0274016,0.116681 -0.00407087,0.177421 -0.0754409,0.229465 0.0212205,-0.0622362 0.0160866,-0.13526 -0.0444961,-0.173516 0.0415236,-0.0260512 0.0538937,-0.131961 0.149035,-0.13222zm-0.000692913 -0.00348031c-0.0764134,-0.0110866 -0.118051,0.0523425 -0.170874,0.0942677 -0.0316811,0.0251496 -0.0865157,0.0508858 -0.139091,0.043748 -0.0240709,0.115472 -0.0957559,0.18178 -0.177433,0.197154l0.0750906 0.0268898c0.0525394,0.000598425 0.075311,-0.0454449 0.100295,-0.0937913 0.0738031,-0.142807 0.160531,-0.12137 0.156886,0.0257717 -0.00215748,0.0872323 -0.104024,0.154961 -0.0303819,0.291803 -0.0294488,-0.221807 0.157642,-0.15785 0.185551,-0.353835 0.0187244,0.117685 -0.0317638,0.151929 -0.106469,0.198685 0.25985,-0.0737559 0.166886,-0.336543 0.294894,-0.337413 0.0500591,-0.000338583 0.0627874,0.123307 -0.0506417,0.231839 0.0811772,-0.0306102 0.126807,-0.0800512 0.143291,-0.170575 0.000519685,-0.0368858 0.0520157,0.0450787 0.0267126,0.077 -0.100228,0.126441 -0.13874,0.258602 -0.0770236,0.38313 -0.0333346,-0.172898 0.13048,-0.305425 0.261106,-0.298803 -0.00389764,-0.171362 0.162177,-0.201224 0.158504,-0.123764 -0.00346457,0.0730315 0.00865354,0.117803 0.0285472,0.188122 -0.0249882,-0.237425 0.0640748,-0.584531 0.292024,-0.701406 -0.034689,-0.083 -0.0531378,-0.168807 0.0281929,-0.321039 -0.0696772,-0.0122638 -0.132039,-0.0265827 -0.187547,-0.047689 0.00225591,0.00708661 0.00959055,0.0204252 0.0125157,0.0275748 -0.0395472,-0.025122 -0.19335,-0.0853425 -0.242299,-0.0915039 0.00603937,-0.00379921 0.0240827,-0.00247244 0.0297205,-0.00759449 -0.0929803,-0.0319094 -0.183287,-0.0541181 -0.293232,-0.044563 0.0293386,0.0129921 0.043878,0.0280157 0.0533228,0.042126 0.0552087,0.0824921 -0.15572,0.151366 0.0840866,0.128441 0.210268,-0.0201063 0.379646,0.0658386 0.331791,0.293374 -0.114791,0.130181 -0.136846,0.251827 -0.146815,0.423331 -0.189587,-0.0436575 -0.165976,0.195878 -0.320929,0.225886 0.101484,-0.167689 -0.0278937,-0.374862 -0.194728,-0.371335 0.0597835,-0.0902008 0.0566772,-0.208295 -0.0134449,-0.328492 0.0731772,0.189894 0.00510236,0.314394 -0.111622,0.392661zm-0.520508 -0.206748c0.0240197,-0.110122 0.0641969,-0.171598 0.0984291,-0.224335 0.0232559,-0.0358228 0.00695669,-0.1055 -0.00229528,-0.161177 0.0462283,0.0259921 0.0634055,-0.185657 0.221476,-0.207642 0.0294528,-0.00892126 0.0855276,0.0270669 0.139252,-0.0121142 -0.000633858,-0.00581102 0.00587008,-0.0222874 0.0125433,-0.0292795 0.0662205,-0.0694213 0.121051,-0.029811 0.172217,-0.00130315 0.164921,0.0918425 0.290941,0.016563 0.294654,-0.175406 0.00133071,-0.0685787 -0.0298071,-0.162449 0.0865709,-0.189764 -0.0558071,-0.00822047 -0.156449,0.0369055 -0.172339,0.174638 -0.0219606,0.190343 -0.114209,0.164248 -0.154378,0.156976 0.0453425,0.00306299 0.0857559,-0.00861417 0.10652,-0.0431181 -0.114602,-0.0105787 -0.19774,-0.231626 -0.450539,0.0346457 -0.0209724,0.0220866 -0.0839134,0.0118031 -0.0920276,0.0127008 -0.0279803,0.00061811 -0.0496575,0.0142913 -0.0726378,0.0360906 0.0155748,-0.0379685 0.047874,-0.0532087 0.0798701,-0.0593583 -0.117921,-0.088874 -0.0656299,-0.270134 0.0902559,-0.348547 -0.0960709,0.0069685 -0.268732,0.141256 -0.259945,0.288161 0.0022126,0.0369567 0.0267835,0.0766772 0.061878,0.107634 0.00501575,0.00442126 0.0147244,0.0127717 0.018378,0.0226614 -0.0388268,0.0350669 -0.044874,0.0753504 -0.0661535,0.123142 -0.0122047,0.0274055 -0.0431024,0.0712874 -0.065878,0.0969134 -0.000244094,0.00112205 0.0272362,0.0250394 0.00890551,0.106783 -0.00474803,0.00921654 -0.0184764,0.0316299 -0.0236969,0.0436575 -0.049185,0.113358 -0.0804409,0.261965 -0.111827,0.456898 -0.00798819,0.049626 -0.0427992,0.225047 -0.0258386,0.252067 0.00466535,0.00742913 0.0122598,0.0234961 0.0310945,0.0310236 -0.0106102,0.0269528 0.0262441,0.0439252 0.0648031,0.0488976 0.0851654,-0.0279882 0.156476,-0.0715276 0.17989,-0.14763 -0.0408543,0.065063 -0.131823,0.118094 -0.17674,0.111685 -0.0093622,-0.00133858 -0.0303346,-0.00378346 -0.0294843,-0.0366575 -0.0396929,-0.016563 -0.0379252,-0.074248 -0.0236969,-0.120362 0.0153465,-0.0497126 0.0559331,-0.105492 0.0997638,-0.132173 -0.0292559,0.00281102 -0.0561142,0.0135157 -0.074563,0.0362402 0.0204724,-0.0992598 0.086685,-0.209024 0.132409,-0.25524 0.0526614,-0.0532244 0.00714961,-0.121209 -0.00148425,-0.160634 -0.024,0.0266693 -0.069437,0.0933583 -0.0953858,0.163925zm0.482028 -0.500551c0.0520709,-0.119972 0.329181,-0.0858543 0.318783,-0.046437 -0.0260472,0.0987677 -0.0834921,0.203858 -0.179622,0.185118 -0.0559055,-0.0108976 -0.0873898,-0.086878 -0.186701,-0.0640866 0.085126,-0.0357008 0.116579,0.000933071 0.180669,0.029626 0.0640906,0.028689 0.127409,-0.0393307 0.152394,-0.10985 0.0148386,-0.0418937 -0.0987087,-0.0928346 -0.153343,-0.0409055 -0.0454843,0.0432362 -0.0308858,0.0646417 -0.0509528,0.0610551l-0.0812283 -0.0145197zm-0.22052 1.10491c0.0330039,-0.0382047 0.0573268,-0.0830433 0.0531811,-0.130583 -0.00508661,-0.0583425 -0.0594213,-0.0456181 -0.0825354,0.00212598 0.0545787,-0.00831102 0.0609252,0.0656181 0.0293543,0.128457z"
   id="path2094" />
  <path
   class="fil3"
   d="M2.28204 4.12361c0.0528661,-0.105445 0.109409,-0.157744 0.173933,-0.185264 -0.0407283,0.0393858 -0.0720433,0.0962638 -0.0816732,0.135988 -0.0233937,0.00659843 -0.063248,0.0258504 -0.0922598,0.0492756z"
   id="path2096" />
  <path
   class="fil4"
   d="M2.49833 3.79128c-0.166276,0.0559528 -0.158449,0.154484 -0.156126,0.191724 -0.0237323,0.0271142 -0.0600197,0.0856614 -0.0774764,0.130382 -0.00362205,-0.048374 0.00766929,-0.284358 0.233602,-0.322106z"
   id="path2098" />
  <path
   class="fil1"
   d="M3.49455 4.79295l-0.00632283 -0.00235433 -0.00622441 -0.00275197 -0.00611024 -0.00317717 -0.006 -0.00362205 -0.00587008 -0.00407874 -0.0057126 -0.00453937 -0.00552756 -0.0050315 -0.00534252 -0.00553937 -0.00511417 -0.00605906 -0.0048622 -0.00657874 -0.00458268 -0.00713386 -0.00429528 -0.00770079 -0.00397244 -0.00826378 -0.00361811 -0.00884252 -0.00323622 -0.00943701 -0.00283465 -0.0100433 -0.00240945 -0.0106457 -0.00195669 -0.0112638 -0.0014685 -0.0118937 -0.000972441 -0.0125236 -0.000444882 -0.0131693 0.000106299 -0.013811 0.000688976 -0.0144685 0.00127953 -0.0151299 0.00190157 -0.0158031 0.00253937 -0.0164764 0.00350787 -0.0187362 0.00396457 -0.0179409 0.00441339 -0.0171575 0.00484252 -0.016374 0.00526772 -0.0156063 0.00567323 -0.0148386 0.00606693 -0.0140866 0.00643307 -0.0133386 0.00680315 -0.0126102 0.00714173 -0.0118819 0.00747244 -0.0111772 0.00777953 -0.0104803 0.00807874 -0.00980315 0.00835827 -0.00914173 0.00862205 -0.00849606 0.00887795 -0.00787008 0.00914567 -0.00727953 0.00938976 -0.00670472 0.0096378 -0.00614961 0.00988583 -0.00561417 0.0101654 -0.00511024 0.0104252 -0.00461811 0.0107126 -0.00414567 0.0110039 -0.00367717 0.0113189 -0.00323622 0.011622 -0.0027874 0.0119409 -0.00234646 0.0122559 -0.00191339 0.0125709 -0.00148819 0.012874 -0.00105512 0.013189 -0.000629921 0.0136654 -0.000212598 0.00451575 1.9685e-005 0.0046378 5.11811e-005 0.00458268 9.05512e-005 0.00451575 0.000125984 0.00446063 0.00015748 0.00438976 0.00019685 0.0043189 0.000232283 0.00425984 0.000267717 0.0042126 0.00030315 0.00413386 0.000334646 0.00404724 0.000366142 0.004 0.000409449 0.00394882 0.000437008 0.00385433 0.000476378 0.00378346 0.0005 0.00374409 0.000547244 0.0036811 0.000574803 0.00357874 0.000602362 0.00351969 0.000637795 0.00345669 0.000673228 0.00339764 0.000700787 0.0033189 0.00073622 0.00324803 0.00076378 0.00317717 0.000799213 0.00311811 0.000826772 0.00303543 0.000858268 0.00296457 0.00088189 0.00289764 0.00092126 0.00283465 0.000944882 0.00274409 0.000968504 0.00268898 0.00100787 0.0309685 0.0122008 0.0890315 -0.212272 -0.0203386 -0.00761417 -0.00386614 -0.00137008 -0.0040315 -0.00135827 -0.00419291 -0.00133858 -0.00438583 -0.00133858 -0.00455906 -0.0013189 -0.00475197 -0.00131102 -0.00491732 -0.00127559 -0.00508661 -0.00126378 -0.00528346 -0.00124409 -0.00546457 -0.0012126 -0.00561811 -0.00117717 -0.00580709 -0.00115748 -0.00599213 -0.00112205 -0.00616535 -0.00108268 -0.00633858 -0.00103937 -0.00651181 -0.00100787 -0.00670472 -0.00096063 -0.00687008 -0.000913386 -0.00705118 -0.000858268 -0.00720866 -0.000811024 -0.00739764 -0.000755906 -0.0075748 -0.00069685 -0.00773622 -0.000629921 -0.00790551 -0.000574803 -0.00808268 -0.0005 -0.00825591 -0.000437008 -0.0084252 -0.000358268 -0.00858661 -0.000287402 -0.00876772 -0.000204724 -0.0089252 -0.000125984 -0.00929134 -4.33071e-005 -0.0257205 0.00042126 -0.0259291 0.00128346 -0.0258898 0.00214961 -0.0258189 0.00302756 -0.0256929 0.00390551 -0.0255394 0.00479528 -0.0253386 0.00568898 -0.0251063 0.00660236 -0.0248071 0.0075 -0.0244882 0.00842913 -0.0241063 0.00935039 -0.0236969 0.0102795 -0.0232205 0.0112126 -0.0227126 0.0121496 -0.0221575 0.0130906 -0.0215591 0.0140394 -0.0209016 0.0149685 -0.0202126 0.0159252 -0.0194764 0.0168661 -0.0186929 0.017815 -0.0178701 0.018752 -0.0170118 0.0197008 -0.0161142 0.0206417 -0.0151732 0.0215866 -0.014189 0.0225354 -0.0131811 0.0234764 -0.012126 0.0244213 -0.0110472 0.025374 -0.00991732 0.0263268 -0.00877165 0.0272835 -0.00757874 0.0282402 -0.00633858 0.0291142 -0.0025748 0.0141417 -0.00222047 0.0139646 -0.00187402 0.013878 -0.0015315 0.0137795 -0.00117323 0.0136654 -0.000826772 0.0135472 -0.000472441 0.0134291 -0.00011811 0.0133031 0.000248031 0.0131575 0.000594488 0.0130118 0.000964567 0.0128622 0.0013189 0.0127087 0.00169291 0.0125394 0.00205906 0.0123622 0.00242913 0.0121772 0.00279528 0.012 0.00318898 0.0117992 0.00355118 0.0115906 0.00394488 0.011378 0.00431102 0.0111614 0.00471654 0.010937 0.00509449 0.0106969 0.00548819 0.0104528 0.00588583 0.0102126 0.00629528 0.00994094 0.00668898 0.00967323 0.00709843 0.0093937 0.0075 0.00911417 0.0079252 0.0088189 0.00833465 0.00850787 0.00874803 0.00818898 0.00901575 0.00774016 0.00665354 0.00545669 0.00689764 0.00535039 0.0071063 0.00519291 0.0073189 0.00504724 0.00754331 0.00488976 0.00775984 0.00473622 0.0079685 0.00456299 0.00818898 0.00440945 0.0084252 0.00424409 0.0086378 0.0040748 0.00887008 0.00390551 0.00908268 0.00374016 0.00933071 0.00356693 0.00955512 0.00338976 0.00977953 0.0032126 0.0100157 0.00304331 0.0102598 0.0028622 0.0104882 0.0026811 0.0107244 0.0025 0.0109606 0.00232283 0.0112126 0.0021378 0.0114449 0.00196063 0.0116929 0.00177559 0.0119409 0.00159449 0.0121969 0.00140157 0.0124449 0.00122047 0.0126969 0.0010315 0.0129449 0.000854331 0.0132165 0.00065748 0.0134764 0.000472441 0.0137362 0.000283465 0.0139921 9.84252e-005 0.0088622 -5.51181e-005 0.00897244 -0.000149606 0.00908661 -0.000251969 0.00916929 -0.000338583 0.00926772 -0.000429134 0.00932283 -0.000507874 0.00937008 -0.000594488 0.00941339 -0.000665354 0.00944488 -0.000744094 0.00942913 -0.000807087 0.0094252 -0.000874016 0.0093937 -0.000933071 0.00935039 -0.000992126 0.00928346 -0.00104331 0.0092126 -0.00109449 0.00911811 -0.00114173 0.00901969 -0.00118898 0.00888189 -0.00122441 0.00874016 -0.00125984 0.00859055 -0.00129528 0.00841732 -0.00132677 0.00821654 -0.00134646 0.00801181 -0.00137402 0.0078189 -0.00138976 0.0075748 -0.00141339 0.00732283 -0.0014252 0.00705906 -0.00143701 0.00679528 -0.00144488 0.00651969 -0.00146063 0.00622441 -0.00146457 0.00591732 -0.00148031 0.0228346 -0.00602362 0.0879094 -0.514598 -0.377311 0 -0.0345354 0.202157 0.0841772 0 -0.0242638 0.142039 -7.08661e-005 0 -0.00328346 7.87402e-006 -0.00705512 -0.000177165 -0.0066378 -0.000511811 -0.00658661 -0.000858268 -0.0065315 -0.0012126 -0.00646457 -0.00157874 -0.00640551 -0.00196063zm0.770122 -0.191976l0.00252362 0.00840945 0.00253937 0.00833465 0.00255118 0.00822835 0.00255118 0.00811024 0.00254331 0.0079685 0.00253937 0.00782283 0.00251969 0.00764961 0.00250394 0.00746457 0.00247244 0.00725984 0.00244882 0.00703937 0.00240157 0.00679134 0.00234646 0.00649213 0.110417 0.306268 0.284886 0 0.156134 -0.913957 -0.282827 0 -0.0275512 0.161283 -0.00261811 0.0156063 -0.00250787 0.0156378 -0.00240945 0.015622 -0.00230709 0.0155827 -0.0022126 0.0155276 -0.00211417 0.0154606 -0.00202362 0.0153661 -0.00192913 0.0152598 -0.00184646 0.0151181 -0.00175984 0.0149882 -0.00167717 0.014815 -0.00159449 0.014626 -0.00151969 0.0144252 -0.00144094 0.0142047 -0.00137402 0.0139606 -0.00129921 0.0137087 -0.00123622 0.0134173 -0.00116929 0.0131299 -0.000795276 0.00918504 -0.0014685 -0.0045748 -0.00257874 -0.008 -0.00257087 -0.00793307 -0.00255512 -0.00785039 -0.00254724 -0.00773622 -0.00250787 -0.00761024 -0.00248425 -0.00747244 -0.00243701 -0.00730709 -0.00240551 -0.00714173 -0.00234252 -0.00693701 -0.00229134 -0.00672835 -0.00222047 -0.00649606 -0.00215354 -0.00625984 -0.00207874 -0.00598425 -0.00199213 -0.00570079 -0.00188189 -0.00535039 -0.113504 -0.327843 -0.285059 0 -0.156134 0.913957 0.282827 0 0.0289567 -0.169504 0.00270472 -0.0160197 0.00262205 -0.0158622 0.00253937 -0.0157008 0.00245669 -0.0155157 0.00236614 -0.0153307 0.00230315 -0.0151339 0.00221654 -0.0149331 0.0021378 -0.0147205 0.00206693 -0.0145039 0.00198819 -0.0142756 0.00191732 -0.0140394 0.00185433 -0.0137953 0.00177165 -0.0135472 0.00171654 -0.0132874 0.00164173 -0.0130197 0.00158661 -0.0127441 0.00151181 -0.0124724 0.000590551 -0.00492126 0.00128346 0.00449213 0.00248031 0.00851969 0.00250787 0.00847638zm0.717713 -0.516118l-0.0925039 0.541496 -0.00327165 0.0206378 -0.00267717 0.0203071 -0.00205118 0.0198701 -0.00139764 0.0194291 -0.000732283 0.0189724 -1.9685e-005 0.0185157 0.00069685 0.0180394 0.00145276 0.0175551 0.00222441 0.0170591 0.00303543 0.0165512 0.00387008 0.0160276 0.00474016 0.0155 0.00563386 0.0149488 0.00657087 0.0143858 0.00752756 0.0137953 0.00852756 0.0131929 0.00953937 0.0125551 0.0105906 0.0118937 0.0116535 0.0112087 0.0127559 0.0104921 0.0138386 0.00973622 0.0149331 0.00896457 0.0160433 0.00816535 0.0171496 0.00734646 0.0182323 0.00650787 0.0193346 0.00565354 0.0204173 0.00479921 0.0215197 0.00394094 0.0226142 0.00306299 0.0237205 0.00219685 0.0248583 0.00132283 0.0260157 0.000440945 0.0239016 -0.00042126 0.023311 -0.00125984 0.0227205 -0.00210236 0.0221378 -0.00293307 0.0215394 -0.00377165 0.020937 -0.00459843 0.020315 -0.00543307 0.0196969 -0.00624803 0.0190551 -0.00706693 0.0183898 -0.0078622 0.0177126 -0.00864173 0.0170236 -0.00940157 0.0163228 -0.0101535 0.0156102 -0.0108701 0.0148898 -0.0115669 0.014189 -0.012248 0.0134646 -0.0129094 0.0127638 -0.0135433 0.012063 -0.0141654 0.011378 -0.0147677 0.0107047 -0.0153661 0.0100354 -0.015937 0.00938189 -0.0165118 0.00875197 -0.0170709 0.0081063 -0.017626 0.00749213 -0.0181575 0.00688189 -0.0186969 0.00628346 -0.0192205 0.00568898 -0.0197441 0.0051063 -0.020252 0.00452362 -0.0207598 0.00394094 -0.0211457 0.0929528 -0.544118 -0.317185 0 -0.0991339 0.580295 -0.00200394 0.0110512 -0.00211024 0.0104016 -0.00222047 0.00982677 -0.00232677 0.00926772 -0.00243701 0.00871654 -0.00252362 0.0081811 -0.00261417 0.00764567 -0.00269291 0.00712205 -0.00276378 0.00661024 -0.0028189 0.00611417 -0.00287008 0.00561811 -0.0028937 0.0051378 -0.00291339 0.00466142 -0.00291339 0.0042126 -0.00290945 0.00377165 -0.00285433 0.00333858 -0.00280709 0.00292913 -0.00275197 0.00256299 -0.0026811 0.00222047 -0.00259449 0.00190157 -0.0025315 0.00162205 -0.00247638 0.0013937 -0.00245669 0.00118898 -0.00244094 0.00101181 -0.00249606 0.000870079 -0.0025748 0.000744094 -0.00270079 0.000629921 -0.0028189 0.000519685 -0.00297638 0.000401575 -0.00316142 0.000287402 -0.00333071 0.000177165 -0.00335433 5.90551e-005 -0.0030315 -6.69291e-005 -0.00280315 -0.00019685 -0.00266142 -0.000322835 -0.0025315 -0.000452756 -0.00242126 -0.00057874 -0.00232677 -0.000712598 -0.00224803 -0.000858268 -0.00219685 -0.00101575 -0.00217717 -0.0012126 -0.00214567 -0.00141732 -0.00212992 -0.00164961 -0.00211024 -0.00192126 -0.00207874 -0.0022126 -0.0020315 -0.00252362 -0.00197638 -0.0028622 -0.0018937 -0.00322047 -0.00179921 -0.00360236 -0.00166929 -0.00398425 -0.00153543 -0.00438583 -0.00137008 -0.00479134 -0.00119685 -0.00521654 -0.000996063 -0.00563386 -0.000791339 -0.00607087 -0.000562992 -0.00651181 -0.000334646 -0.00696457 -7.87402e-005 -0.00740157 0.000181102 -0.00787402 0.000452756 -0.00833465 0.000732283 -0.00881102 0.00102362 -0.00927953 0.00133071 -0.00977165 0.00165354 -0.0103425 0.0991299 -0.580291 -0.317181 0z"
   id="path2100" />
  <path
   class="fil5"
   d="M3.86077 4.47429l-0.326394 0 -0.0279606 0.163657 0.0841811 0 -0.0304016 0.177953c-0.0090315,0.00259449 -0.0193425,0.00259449 -0.0296496,0.00259449 -0.0893268,0 -0.173327,-0.071437 -0.141819,-0.255882 0.0357244,-0.209122 0.155327,-0.28576 0.311654,-0.28576 0.053252,0 0.096811,0.00649606 0.128949,0.0194843l0.0724567 -0.172752c-0.0338543,-0.0129921 -0.10013,-0.0272795 -0.19461,-0.0272795 -0.264555,0 -0.532236,0.138984 -0.591917,0.448122 -0.0285118,0.146776 0.000397638,0.279264 0.093811,0.355898 0.0660433,0.0558583 0.163752,0.0872441 0.309772,0.0872441 0.0893307,0 0.20735,-0.0170984 0.25961,-0.0313858l0.0823189 -0.481894zm0.310512 0.505272l0.0256654 -0.15024c0.029252,-0.17124 0.0437244,-0.316283 0.0514016,-0.391402l0.00343701 0c0.00955512,0.0647283 0.0431024,0.180114 0.0676732,0.247441l0.106067 0.294201 0.242224 0 0.149555 -0.875461 -0.231913 0 -0.0242598 0.142012c-0.0282913,0.16561 -0.0384252,0.335551 -0.0437598,0.406988l-0.00343701 0c-0.0176614,-0.0675433 -0.053811,-0.177732 -0.0735079,-0.233366l-0.10928 -0.315634 -0.24222 0 -0.149555 0.875461 0.231909 0zm0.833272 -0.875461l-0.0892008 0.522157c-0.0375,0.219516 0.0237244,0.363909 0.29515,0.363909 0.245657,0 0.377217,-0.136598 0.415606,-0.361311l0.0896417 -0.524756 -0.266272 0 -0.0958543 0.561126c-0.0210827,0.123394 -0.0650315,0.149374 -0.11485,0.149374 -0.0480945,0 -0.0835591,-0.0337717 -0.063811,-0.149374l0.0958583 -0.561126 -0.266268 0z"
   id="path2102" />
  <path
   class="fil6"
   d="M6.09313 2.85209l2.45315 0c0.146724,0 0.266772,0.120055 0.266772,0.266772l0 2.46646c0,0.146713 -0.120059,0.266772 -0.266772,0.266772l-2.41794 0 0.00149606 -0.000755906c-0.551626,-1.25909 0.479335,-1.89318 -0.0354016,-2.99613l-0.00131102 -0.00311811z"
   id="path2104" />
  <path
   class="fil7"
   d="M5.9132 5.2684c0.0212047,0.201091 0.0750866,0.397291 0.152087,0.583697l-0.135898 0c-0.101807,-0.272 -0.137213,-0.558937 -0.109752,-0.849949 0.0519724,-0.35763 0.191106,-0.681213 0.300512,-1.02278l0.0064685 -0.0221339c-0.0350394,0.151012 -0.0791969,0.299587 -0.118406,0.449512 -0.0747244,0.285756 -0.122209,0.567087 -0.0950118,0.86165z"
   id="path2106" />
  <path
   class="fil8"
   d="M2.53066 5.29028l0.00549213 0.122126 0.0274764 0 0.0189803 -0.0447047c0.00424409,-0.0102402 0.00849213,-0.0232244 0.0127362,-0.0379606l0.000748031 0c-0.00124803,0.0147362 -0.00199606,0.0274724 -0.00174803,0.0379606l0.00174803 0.0447047 0.0272244 0 0.0536969 -0.122126 -0.0304685 0 -0.0187323 0.0536969c-0.00549606,0.0167323 -0.00824409,0.0257244 -0.0112402,0.0379606l-0.000748031 0c0.00149606,-0.0127362 0.00174803,-0.0187323 0.00174803,-0.0354646l-0.0005 -0.0561929 -0.0239764 0 -0.0237244 0.0569409c-0.00549606,0.0139882 -0.00849213,0.0227283 -0.0119882,0.0347165l-0.000751969 0c0.00174803,-0.0124882 0.00224803,-0.0207283 0.00349606,-0.0372126l0.003 -0.0544449 -0.0324685 0zm0.171327 0l0.00549213 0.122126 0.0274764 0 0.0189803 -0.0447047c0.00424409,-0.0102402 0.00849213,-0.0232244 0.0127362,-0.0379606l0.000748031 0c-0.00124803,0.0147362 -0.00199606,0.0274724 -0.00174803,0.0379606l0.00174803 0.0447047 0.0272244 0 0.0536969 -0.122126 -0.0304685 0 -0.0187323 0.0536969c-0.00549606,0.0167323 -0.00824409,0.0257244 -0.0112402,0.0379606l-0.000748031 0c0.00149606,-0.0127362 0.00174803,-0.0187323 0.00174803,-0.0354646l-0.0005 -0.0561929 -0.0239764 0 -0.0237244 0.0569409c-0.00549606,0.0139882 -0.00849213,0.0227283 -0.0119882,0.0347165l-0.000751969 0c0.00174803,-0.0124882 0.00224803,-0.0207283 0.00349606,-0.0372126l0.003 -0.0544449 -0.0324685 0zm0.171327 0l0.00549213 0.122126 0.0274764 0 0.0189803 -0.0447047c0.00424409,-0.0102402 0.00849213,-0.0232244 0.0127362,-0.0379606l0.000748031 0c-0.00124803,0.0147362 -0.00199606,0.0274724 -0.00174803,0.0379606l0.00174803 0.0447047 0.0272244 0 0.0536969 -0.122126 -0.0304685 0 -0.0187323 0.0536969c-0.00549606,0.0167323 -0.00824409,0.0257244 -0.0112402,0.0379606l-0.000748031 0c0.00149606,-0.0127362 0.00174803,-0.0187323 0.00174803,-0.0354646l-0.0005 -0.0561929 -0.0239764 0 -0.0237244 0.0569409c-0.00549606,0.0139882 -0.00849213,0.0227283 -0.0119882,0.0347165l-0.000751969 0c0.00174803,-0.0124882 0.00224803,-0.0207283 0.00349606,-0.0372126l0.003 -0.0544449 -0.0324685 0zm0.165083 0.124165c0.0109882,0 0.0207283,-0.0090315 0.0207283,-0.0235157 0,-0.0114882 -0.00624409,-0.0199803 -0.0187283,-0.0199803 -0.0107402,0 -0.0199803,0.0114882 -0.0199803,0.0232283 0,0.0117362 0.00624016,0.0202677 0.0177323,0.0202677l0.000248031 0zm0.0504055 0.0425c0.0047874,0.00295669 0.0167756,0.00545276 0.0262677,0.00545276 0.0172323,0 0.0312165,-0.00449213 0.0412087,-0.0144843 0.0104882,-0.0102402 0.0169843,-0.0263071 0.0209803,-0.0479921l0.0197283 -0.10415c-0.00874016,-0.00449606 -0.0207283,-0.00749213 -0.0347165,-0.00749213 -0.0449528,0 -0.0676811,0.0505354 -0.0669331,0.089122 0.0005,0.0192717 0.00874409,0.0350039 0.0257244,0.0350039 0.00974016,-0.000248031 0.0189843,-0.00499213 0.0274724,-0.0179803l0.0005 0 -0.00299606 0.0144843c-0.00349606,0.0172756 -0.0119882,0.0292638 -0.0297205,0.0292638 -0.00624409,0 -0.0144843,-0.00224803 -0.0194803,-0.00499606l-0.00803543 0.0237677zm0.0657283 -0.0962362c-0.002,0.0101969 -0.00899213,0.0269724 -0.0187323,0.0269724 -0.00874016,0 -0.00949213,-0.0102795 -0.00949213,-0.019315 0.000251969,-0.0207677 0.0122402,-0.0558583 0.0304724,-0.0558583 0.00274803,0 0.00474409,0.000248031 0.00649213,0.00124803l-0.00874016 0.0469528zm0.0919094 0.0516969l0.0122362 -0.064685c0.00424409,-0.0232244 0.0142362,-0.0339646 0.0214803,-0.0339646 0.00524409,0 0.00749213,0.00399606 0.00749213,0.00974016 0,0.00474409 -0.0005,0.00874016 -0.0015,0.0129882l-0.0142362 0.0759213 0.0312205 0 0.0139843 -0.0741732c0.0015,-0.00849213 0.00274803,-0.0159843 0.00274803,-0.0232283 0,-0.0144843 -0.00624409,-0.0267244 -0.0237244,-0.0267244 -0.0129882,0 -0.0244764,0.00649606 -0.0329685,0.0177323l-0.0005 0 0.00124803 -0.0157323 -0.0267244 0c-0.00174803,0.0117362 -0.00349606,0.0254724 -0.00624016,0.0397087l-0.0157362 0.0824173 0.0312205 0zm0.175075 -0.122126l-0.0129843 0.0706772c-0.00349606,0.0174843 -0.0114882,0.0279724 -0.0194803,0.0279724 -0.00524803,0 -0.00749606,-0.00374409 -0.00749606,-0.00974016 0,-0.00574409 0.001,-0.0119882 0.00224803,-0.0194803l0.0132402 -0.0694291 -0.0312205 0 -0.0132362 0.0706772c-0.00174803,0.00924409 -0.003,0.0174843 -0.003,0.0252283 0,0.0159843 0.00699606,0.0282598 0.0232283,0.0282598 0.0114882,0 0.0227283,-0.00578346 0.0317205,-0.0187717l0.0005 0.000251969 -0.001 0.0164803 0.0269724 0c0.0015,-0.0117362 0.00349606,-0.0254724 0.00624409,-0.0397087l0.0154843 -0.0824173 -0.0312205 0zm0.068685 0.124165c0.0109882,0 0.0207283,-0.0090315 0.0207283,-0.0235157 0,-0.0114882 -0.00624409,-0.0199803 -0.0187283,-0.0199803 -0.0107402,0 -0.0199803,0.0114882 -0.0199803,0.0232283 0,0.0117362 0.00624016,0.0202677 0.0177323,0.0202677l0.000248031 0zm0.0949055 0c0.0367126,0 0.0571929,-0.0450787 0.0571929,-0.0834134 0,-0.0172756 -0.00449606,-0.042752 -0.0352165,-0.042752 -0.0369606,0 -0.059689,0.0425 -0.059689,0.083874 0,0.0180276 0.00674409,0.0422913 0.0374606,0.0422913l0.000251969 0zm0.00274803 -0.0237677c-0.00924409,0 -0.00974409,-0.0110276 -0.00974409,-0.019811 -0.000248031,-0.0212717 0.0102402,-0.0591102 0.0237283,-0.0591102 0.00774409,0 0.00974016,0.00724409 0.00974016,0.0152795 0,0.0220591 -0.00824016,0.0636417 -0.0234764,0.0636417l-0.000248031 0zm0.10739 0.0217283l0.0104921 -0.0564409c0.00399606,-0.0204803 0.0167323,-0.0362165 0.0302165,-0.0362165 0.0015,0 0.00399606,0.000251969 0.00499606,0.0005l0.00599606 -0.0314685c-0.0015,-0.000248031 -0.003,-0.0005 -0.00499606,-0.0005 -0.0102402,0 -0.0212283,0.00699213 -0.0302205,0.0224803l-0.001 0c0.001,-0.00749606 0.0015,-0.0139882 0.002,-0.0204803l-0.0267244 0c-0.00174803,0.0114882 -0.00349606,0.0254724 -0.00624409,0.0392087l-0.0157756 0.0829173 0.0312598 0zm0.0566496 0.0445394c0.0047874,0.00295669 0.0167756,0.00545276 0.0262677,0.00545276 0.0172323,0 0.0312165,-0.00449213 0.0412087,-0.0144843 0.0104882,-0.0102402 0.0169843,-0.0263071 0.0209803,-0.0479921l0.0197283 -0.10415c-0.00874016,-0.00449606 -0.0207283,-0.00749213 -0.0347165,-0.00749213 -0.0449528,0 -0.0676811,0.0505354 -0.0669331,0.089122 0.0005,0.0192717 0.00874409,0.0350039 0.0257244,0.0350039 0.00974016,-0.000248031 0.0189843,-0.00499213 0.0274724,-0.0179803l0.0005 0 -0.00299606 0.0144843c-0.00349606,0.0172756 -0.0119882,0.0292638 -0.0297205,0.0292638 -0.00624409,0 -0.0144843,-0.00224803 -0.0194803,-0.00499606l-0.00803543 0.0237677zm0.0657283 -0.0962362c-0.002,0.0101969 -0.00899213,0.0269724 -0.0187323,0.0269724 -0.00874016,0 -0.00949213,-0.0102795 -0.00949213,-0.019315 0.000251969,-0.0207677 0.0122402,-0.0558583 0.0304724,-0.0558583 0.00274803,0 0.00474409,0.000248031 0.00649213,0.00124803l-0.00874016 0.0469528zm0.134366 -0.135614l0 0.249791 0.0217283 0 0 -0.249791 -0.0217283 0zm0.116882 0.065185l0.00549213 0.122126 0.0274764 0 0.0189803 -0.0447047c0.00424409,-0.0102402 0.00849213,-0.0232244 0.0127362,-0.0379606l0.000748031 0c-0.00124803,0.0147362 -0.00199606,0.0274724 -0.00174803,0.0379606l0.00174803 0.0447047 0.0272244 0 0.0536969 -0.122126 -0.0304685 0 -0.0187323 0.0536969c-0.00549606,0.0167323 -0.00824409,0.0257244 -0.0112402,0.0379606l-0.000748031 0c0.00149606,-0.0127362 0.00174803,-0.0187323 0.00174803,-0.0354646l-0.0005 -0.0561929 -0.0239764 0 -0.0237244 0.0569409c-0.00549606,0.0139882 -0.00849213,0.0227283 -0.0119882,0.0347165l-0.000751969 0c0.00174803,-0.0124882 0.00224803,-0.0207283 0.00349606,-0.0372126l0.003 -0.0544449 -0.0324685 0zm0.171327 0l0.00549213 0.122126 0.0274764 0 0.0189803 -0.0447047c0.00424409,-0.0102402 0.00849213,-0.0232244 0.0127362,-0.0379606l0.000748031 0c-0.00124803,0.0147362 -0.00199606,0.0274724 -0.00174803,0.0379606l0.00174803 0.0447047 0.0272244 0 0.0536969 -0.122126 -0.0304685 0 -0.0187323 0.0536969c-0.00549606,0.0167323 -0.00824409,0.0257244 -0.0112402,0.0379606l-0.000748031 0c0.00149606,-0.0127362 0.00174803,-0.0187323 0.00174803,-0.0354646l-0.0005 -0.0561929 -0.0239764 0 -0.0237244 0.0569409c-0.00549606,0.0139882 -0.00849213,0.0227283 -0.0119882,0.0347165l-0.000751969 0c0.00174803,-0.0124882 0.00224803,-0.0207283 0.00349606,-0.0372126l0.003 -0.0544449 -0.0324685 0zm0.171327 0l0.00549213 0.122126 0.0274764 0 0.0189803 -0.0447047c0.00424409,-0.0102402 0.00849213,-0.0232244 0.0127362,-0.0379606l0.000748031 0c-0.00124803,0.0147362 -0.00199606,0.0274724 -0.00174803,0.0379606l0.00174803 0.0447047 0.0272244 0 0.0536969 -0.122126 -0.0304685 0 -0.0187323 0.0536969c-0.00549606,0.0167323 -0.00824409,0.0257244 -0.0112402,0.0379606l-0.000748031 0c0.00149606,-0.0127362 0.00174803,-0.0187323 0.00174803,-0.0354646l-0.0005 -0.0561929 -0.0239764 0 -0.0237244 0.0569409c-0.00549606,0.0139882 -0.00849213,0.0227283 -0.0119882,0.0347165l-0.000751969 0c0.00174803,-0.0124882 0.00224803,-0.0207283 0.00349606,-0.0372126l0.003 -0.0544449 -0.0324685 0zm0.165083 0.124165c0.0109882,0 0.0207283,-0.0090315 0.0207283,-0.0235157 0,-0.0114882 -0.00624409,-0.0199803 -0.0187283,-0.0199803 -0.0107402,0 -0.0199803,0.0114882 -0.0199803,0.0232283 0,0.0117362 0.00624016,0.0202677 0.0177323,0.0202677l0.000248031 0zm0.0876614 -0.00203937l0.0189803 -0.0998976 0.0234764 0 0.00399606 -0.0222283 -0.0234764 0 0.001 -0.00499606c0.00174803,-0.0109882 0.00849213,-0.0227283 0.0194803,-0.0227283 0.00424803,0 0.00699213,0.0005 0.00974016,0.0015l0.00724409 -0.0239764c-0.00374803,-0.00124803 -0.00974016,-0.00249606 -0.0179843,-0.00249606 -0.0122362,0 -0.0232244,0.00424409 -0.0307165,0.0109882 -0.0102402,0.00974016 -0.0157362,0.0222283 -0.0184843,0.0369606l-0.000996063 0.00474803 -0.0164843 0 -0.00399606 0.0222283 0.0162323 0 -0.0189803 0.0998976 0.0309685 0zm0.0489094 -0.00474409c0.0042874,0.00299606 0.0142756,0.0062874 0.0255157,0.0062874 0.0279724,0 0.0467047,-0.0150276 0.0467047,-0.0420433 0,-0.0095315 -0.00449606,-0.021563 -0.0182323,-0.0320945 -0.00574409,-0.00449213 -0.00924016,-0.0085315 -0.00924016,-0.0145276 0,-0.00828346 0.00624016,-0.0135276 0.0162323,-0.0135276 0.00499606,0 0.0107402,0.00174803 0.0144843,0.00374803l0.00674409 -0.0225197c-0.00449606,-0.00274803 -0.0124882,-0.00470472 -0.0229764,-0.00470472 -0.0277244,0 -0.0452047,0.0182756 -0.0452047,0.040752 0,0.0102835 0.00474409,0.021311 0.0154843,0.0298465 0.00849213,0.00674409 0.0117362,0.0112362 0.0117362,0.0182717 0,0.00753543 -0.00499213,0.0132795 -0.0139843,0.0135276 -0.00874016,0.000251969 -0.0147362,-0.00224803 -0.0197323,-0.00499213l-0.0075315 0.0219764zm0.135657 0.00474409l0.0189803 -0.0998976 0.0234764 0 0.00399606 -0.0222283 -0.0234764 0 0.001 -0.00499606c0.00174803,-0.0109882 0.00849213,-0.0227283 0.0194803,-0.0227283 0.00424803,0 0.00699213,0.0005 0.00974016,0.0015l0.00724409 -0.0239764c-0.00374803,-0.00124803 -0.00974016,-0.00249606 -0.0179843,-0.00249606 -0.0122362,0 -0.0232244,0.00424409 -0.0307165,0.0109882 -0.0102402,0.00974016 -0.0157362,0.0222283 -0.0184843,0.0369606l-0.000996063 0.00474803 -0.0164843 0 -0.00399606 0.0222283 0.0162323 0 -0.0189803 0.0998976 0.0309685 0zm0.062937 0.00203937c0.0109882,0 0.0207283,-0.0090315 0.0207283,-0.0235157 0,-0.0114882 -0.00624409,-0.0199803 -0.0187283,-0.0199803 -0.0107402,0 -0.0199803,0.0114882 -0.0199803,0.0232283 0,0.0117362 0.00624016,0.0202677 0.0177323,0.0202677l0.000248031 0zm0.0949055 0c0.0367126,0 0.0571929,-0.0450787 0.0571929,-0.0834134 0,-0.0172756 -0.00449606,-0.042752 -0.0352165,-0.042752 -0.0369606,0 -0.059689,0.0425 -0.059689,0.083874 0,0.0180276 0.00674409,0.0422913 0.0374606,0.0422913l0.000251969 0zm0.00274803 -0.0237677c-0.00924409,0 -0.00974409,-0.0110276 -0.00974409,-0.019811 -0.000248031,-0.0212717 0.0102402,-0.0591102 0.0237283,-0.0591102 0.00774409,0 0.00974016,0.00724409 0.00974016,0.0152795 0,0.0220591 -0.00824016,0.0636417 -0.0234764,0.0636417l-0.000248031 0zm0.10739 0.0217283l0.0104921 -0.0564409c0.00399606,-0.0204803 0.0167323,-0.0362165 0.0302165,-0.0362165 0.0015,0 0.00399606,0.000251969 0.00499606,0.0005l0.00599606 -0.0314685c-0.0015,-0.000248031 -0.003,-0.0005 -0.00499606,-0.0005 -0.0102402,0 -0.0212283,0.00699213 -0.0302205,0.0224803l-0.001 0c0.001,-0.00749606 0.0015,-0.0139882 0.002,-0.0204803l-0.0267244 0c-0.00174803,0.0114882 -0.00349606,0.0254724 -0.00624409,0.0392087l-0.0157756 0.0829173 0.0312598 0zm0.0566496 0.0445394c0.0047874,0.00295669 0.0167756,0.00545276 0.0262677,0.00545276 0.0172323,0 0.0312165,-0.00449213 0.0412087,-0.0144843 0.0104882,-0.0102402 0.0169843,-0.0263071 0.0209803,-0.0479921l0.0197283 -0.10415c-0.00874016,-0.00449606 -0.0207283,-0.00749213 -0.0347165,-0.00749213 -0.0449528,0 -0.0676811,0.0505354 -0.0669331,0.089122 0.0005,0.0192717 0.00874409,0.0350039 0.0257244,0.0350039 0.00974016,-0.000248031 0.0189843,-0.00499213 0.0274724,-0.0179803l0.0005 0 -0.00299606 0.0144843c-0.00349606,0.0172756 -0.0119882,0.0292638 -0.0297205,0.0292638 -0.00624409,0 -0.0144843,-0.00224803 -0.0194803,-0.00499606l-0.00803543 0.0237677zm0.0657283 -0.0962362c-0.002,0.0101969 -0.00899213,0.0269724 -0.0187323,0.0269724 -0.00874016,0 -0.00949213,-0.0102795 -0.00949213,-0.019315 0.000251969,-0.0207677 0.0122402,-0.0558583 0.0304724,-0.0558583 0.00274803,0 0.00474409,0.000248031 0.00649213,0.00124803l-0.00874016 0.0469528z"
   id="path2108" />
  <g
   id="_131616168">
   <path
   id="_132398352"
   class="fil1"
   d="M6.74737 3.92534l0.138016 0 0.0272992 -0.146157 0.131815 0 0.0237008 -0.121894 -0.132488 0 0.00640945 -0.0327953 0.140504 0 0.0236496 -0.122461 -0.278512 0 -0.0803937 0.423307zm0.486398 -0.139701l0.00108268 0.00129921 0.00118504 0.00185039 0.00125197 0.00255906 0.00125591 0.00335827 0.00118898 0.00422835 0.00106299 0.00512598 0.000889764 0.00605118 0.000728346 0.00730315 0.000838583 0.00892913 0.000838583 0.00857087 0.000826772 0.00812598 0.000814961 0.00766929 0.000799213 0.00725984 0.000799213 0.0068189 0.000779528 0.0063937 0.000779528 0.00595669 0.000755906 0.00554724 0.000759843 0.00514567 0.000751969 0.00475591 0.000751969 0.00434252 0.000751969 0.004 0.000775591 0.00366535 0.00080315 0.00339764 0.00483858 0.0173465 0.136047 0 0.00798819 0 0.281201 0 0.0236496 -0.122461 -0.151795 0 0.00640551 -0.0327953 0.134795 0 0.0237047 -0.121894 -0.135874 0 0.00465354 -0.0236969 0.14337 0 0.0236457 -0.122461 -0.28135 0 -0.0777874 0.409583 -0.00634646 -0.016185 -0.000850394 -0.00290157 -0.000968504 -0.00414173 -0.000988189 -0.0051063 -0.000976378 -0.00587008 -0.000948819 -0.00651575 -0.000925197 -0.00704331 -0.000893701 -0.00746457 -0.000885827 -0.0077874 -0.000870079 -0.00800787 -0.000862205 -0.00815354 -0.000862205 -0.00822441 -0.00088189 -0.00818898 -0.000897638 -0.00808661 -0.000925197 -0.00789764 -0.000952756 -0.0076063 -0.000862205 -0.00640945 -0.00102756 -0.00640551 -0.00120472 -0.00624016 -0.00138976 -0.00609449 -0.00161024 -0.00593307 -0.00184252 -0.00577559 -0.00211024 -0.00561811 -0.00240945 -0.0054685 -0.00273622 -0.00526378 -0.0030748 -0.00505906 -0.00103937 -0.00144882 0.00158268 -0.000791339 0.00902362 -0.0052126 0.00860236 -0.00575591 0.00814567 -0.00633858 0.00762598 -0.00693307 0.00706299 -0.00755512 0.00641339 -0.00817323 0.0057126 -0.00879921 0.00493307 -0.0093937 0.00411417 -0.00998031 0.00324016 -0.0105157 0.00233465 -0.0110354 0.00140945 -0.0115197 0.000468504 -0.0119409 -0.000291339 -0.0087126 -0.000858268 -0.00837008 -0.00142126 -0.00805906 -0.00194882 -0.00776378 -0.00248031 -0.00742126 -0.00295669 -0.00707874 -0.0034252 -0.0067126 -0.00385433 -0.00635827 -0.00425984 -0.00596457 -0.00459449 -0.00555906 -0.00490945 -0.00516929 -0.00518898 -0.00479528 -0.00544882 -0.00441732 -0.00565748 -0.00403937 -0.0058189 -0.00366142 -0.00576378 -0.00321654 -0.0064252 -0.00332677 -0.00685039 -0.00308268 -0.00698819 -0.00272441 -0.00709843 -0.00240157 -0.00719685 -0.00208268 -0.00725984 -0.00180315 -0.00730709 -0.00153543 -0.00733858 -0.00130315 -0.00736614 -0.00107874 -0.00735433 -0.00088189 -0.00732283 -0.000688976 -0.00728346 -0.00053937 -0.00722441 -0.00038189 -0.00712992 -0.000259843 -0.00703937 -0.000145669 -0.00691732 -4.72441e-005 -0.00814567 4.72441e-005 -0.00809449 0.000141732 -0.00804724 0.00023622 -0.00797244 0.000318898 -0.00788976 0.000409449 -0.00777559 0.000488189 -0.00765354 0.000570866 -0.0075 0.000649606 -0.00733858 0.000732283 -0.00712992 0.00080315 -0.00694094 0.000874016 -0.0067126 0.000948819 -0.00647244 0.00102756 -0.00621654 0.00109843 -0.00592913 0.00117323 -0.0182677 0.00401181 -0.0786535 0.412618 0.136858 0 0.0272992 -0.144453 0.000807087 0 0.00453543 0.000114173 0.00372047 0.000307087 0.00309843 0.000488189 0.00248031 0.00061811 0.00191732 0.000700787 0.0014685 0.000744094 0.00117717 0.000811024 0.00106693 0.000968504zm0.0461063 -0.1655l0.00200787 0.00118898 0.0016378 0.0012126 0.00131496 0.00122835 0.00105118 0.00124409 0.000822835 0.00126772 0.000641732 0.00135827 0.000511811 0.00158661 0.000350394 0.0019252 0.000141732 0.00237402 -0.000220472 0.00386614 -0.000614173 0.00357874 -0.000972441 0.00330315 -0.00131102 0.00306693 -0.00165748 0.00288583 -0.00200787 0.00272441 -0.00238189 0.00257874 -0.00277559 0.00242913 -0.00317323 0.00226378 -0.00356693 0.00205118 -0.00398031 0.00183071 -0.00434252 0.00156693 -0.00470079 0.00126772 -0.00501575 0.000937008 -0.00532677 0.00057874 -0.00595276 0.000208661 -0.00553937 0 0.010252 -0.0529173 0.00303937 -0.000169291 0.00405118 -0.000129921 0.00431496 -4.72441e-005 0.00421654 0.000114173 0.00387795 0.000326772 0.00366929 0.000535433 0.00340157 0.000720472 0.0030748 0.00088189 0.00275984 0.00102756 0.00240157 0.00113386zm0.747165 0.0280512l-0.135874 0 0.00465354 -0.0236969 0.14337 0 0.0236457 -0.122461 -0.28135 0 -0.0803937 0.423307 0.289189 0 0.0236496 -0.122461 -0.151795 0 0.00640551 -0.0327953 0.134795 0 0.0237047 -0.121894zm-1.0877 0.839031l0.00455118 0.0898543 0.14363 0 -0.00251575 -0.0235433 0.0013189 0.000858268 0.00511024 0.00295669 0.00551969 0.00285433 0.0059685 0.00275591 0.00638583 0.00262205 0.00683465 0.00251181 0.00728346 0.0023622 0.00774409 0.00222047 0.00820079 0.00203937 0.00866929 0.0018622 0.00912598 0.00164961 0.00960236 0.00144094 0.0100709 0.00119291 0.0105433 0.000944882 0.0110118 0.000669291 0.0117244 0.000389764 0.00870472 -0.000137795 0.00848425 -0.00038189 0.00844882 -0.000649606 0.00838976 -0.000913386 0.0083189 -0.00118898 0.00823228 -0.00145669 0.00813386 -0.00174016 0.00804724 -0.00201969 0.00791339 -0.00232283 0.00777559 -0.0026063 0.00762205 -0.00291339 0.00747638 -0.0032126 0.00729921 -0.00354724 0.00709843 -0.00385433 0.00688583 -0.00418504 0.00667323 -0.00452362 0.00642126 -0.00487402 0.0061378 -0.00520472 0.00585433 -0.00555906 0.00555512 -0.00591732 0.00520079 -0.00626378 0.00485039 -0.00660236 0.00446457 -0.00695276 0.0040748 -0.00729528 0.0036378 -0.00764173 0.00318898 -0.00793701 0.00272835 -0.00824803 0.00226772 -0.00855118 0.00176772 -0.00885433 0.00127953 -0.00911811 0.000771654 -0.00939764 0.000267717 -0.00983465 -0.000425197 -0.00994488 -0.0012874 -0.00981102 -0.00212992 -0.00948819 -0.00293307 -0.0091378 -0.00371654 -0.00876378 -0.0044252 -0.00835039 -0.00509449 -0.00793307 -0.00569291 -0.00751181 -0.00627165 -0.00712205 -0.00677165 -0.00672047 -0.00724803 -0.0063622 -0.00767717 -0.00600787 -0.00808661 -0.00570472 -0.00847638 -0.00540945 -0.00883465 -0.00514173 -0.00866142 -0.00462205 -0.00523228 -0.00295276 -0.00530709 -0.0029685 -0.0050748 -0.00284252 -0.00479528 -0.00272047 -0.00448819 -0.00262598 -0.00412205 -0.00251181 -0.0037126 -0.00240157 -0.00324409 -0.00225984 -0.00274409 -0.00211417 -0.00217717 -0.0018937 -0.00159449 -0.00161417 -0.00101575 -0.00125197 -0.000511811 -0.000811024 -0.000137795 -0.000307087 -7.87402e-006 -8.66142e-005 1.5748e-005 -0.000251969 7.08661e-005 -0.000377953 0.00011811 -0.00034252 0.00019685 -0.000397638 0.000334646 -0.0005 0.000555118 -0.000637795 0.000858268 -0.000779528 0.00125591 -0.000905512 0.00171654 -0.000992126 0.00216535 -0.001 0.00266929 -0.000964567 0.00320079 -0.000885827 0.00371654 -0.000759843 0.00423622 -0.00057874 0.00474803 -0.000374016 0.00565748 -0.000137795 0.00537008 -7.87402e-005 0.00497638 0.000153543 0.00491732 0.000350394 0.00484252 0.00053937 0.00474016 0.00069685 0.00461811 0.00084252 0.00447638 0.000964567 0.0043189 0.00107087 0.00412992 0.00114173 0.00391339 0.00119685 0.00369291 0.00123622 0.00346063 0.00125197 0.00317323 0.00122835 0.0028937 0.00120079 0.00257874 0.00112598 0.0222126 0.0103465 0.0433504 -0.119213 -0.0205394 -0.00934252 -0.00416535 -0.00179528 -0.00447244 -0.00179921 -0.00480709 -0.00179921 -0.00514961 -0.00174409 -0.00546457 -0.0016811 -0.00582677 -0.00159843 -0.00618898 -0.00150394 -0.00658268 -0.00137402 -0.00696063 -0.00124409 -0.00737795 -0.00109055 -0.00780709 -0.000929134 -0.00826378 -0.000744094 -0.0087126 -0.000547244 -0.00919685 -0.00034252 -0.00975984 -0.000122047 -0.00896457 0.000153543 -0.00888976 0.00046063 -0.00877559 0.00076378 -0.00865354 0.00105906 -0.00852362 0.00136614 -0.00837795 0.00166142 -0.00822047 0.00196063 -0.00805906 0.00225591 -0.00790551 0.00256299 -0.00770472 0.00285433 -0.00751575 0.00315748 -0.00729921 0.00344488 -0.00709449 0.00375197 -0.0068622 0.00404724 -0.00661811 0.00434646 -0.00636614 0.00464173 -0.00609843 0.00495276 -0.00579921 0.00522441 -0.00551575 0.00553543 -0.00518504 0.00581496 -0.00486614 0.00611024 -0.00450787 0.00638976 -0.0041378 0.00666535 -0.00374803 0.00690945 -0.00335827 0.00716929 -0.00294488 0.00741732 -0.00252362 0.00766142 -0.0020748 0.00787402 -0.00163386 0.0080748 -0.00116929 0.00828346 -0.000708661 0.00846457 -0.00023622 0.00888189 0.000590551 0.0114843 0.0017874 0.0112244 0.00287402 0.0106496 0.00387402 0.0100197 0.00472047 0.00936614 0.0054685 0.00872441 0.00606693 0.00807087 0.00657087 0.00748031 0.00695276 0.0068937 0.00724803 0.00637402 0.00745669 0.00588976 0.00758661 0.00545276 0.00762992 0.00504331 0.00761417 0.00467717 0.00749606 0.00433465 0.00738583 0.00406299 0.00609843 0.00317717 0.00541339 0.00289764 0.00494882 0.00273228 0.00447638 0.00259055 0.00398819 0.00244488 0.00348425 0.00229134 0.00294488 0.00212598 0.00242913 0.00196063 0.00190551 0.00174409 0.00140551 0.00150787 0.00096063 0.00124016 0.000610236 0.000984252 0.000358268 0.000775591 0.000224409 0.000700787 0.000145669 0.000795276 5.51181e-005 0.00092126 -0.000102362 0.00141732 -0.000208661 0.000988189 -0.000295276 0.000783465 -0.000397638 0.000720472 -0.000598425 0.000783465 -0.000889764 0.000901575 -0.00125984 0.001 -0.00164173 0.00103937 -0.00206299 0.00103543 -0.00247638 0.000992126 -0.00282677 0.000885827 -0.00313386 0.000751969 -0.00341732 0.000582677 -0.00364961 0.000413386 -0.0038189 0.000216535 -0.00422835 1.9685e-005 -0.00631496 -0.00011811 -0.00611417 -0.000326772 -0.00606299 -0.00053937 -0.0059685 -0.000724409 -0.00586614 -0.000913386 -0.00576772 -0.00108661 -0.00564961 -0.00125197 -0.00549606 -0.00138976 -0.00536614 -0.00153937 -0.00520079 -0.00165748 -0.00502362 -0.00177559 -0.00482283 -0.0018622 -0.00462598 -0.00195669 -0.00440551 -0.00201575 -0.00416535 -0.0020748 -0.0239173 -0.0128701 -0.0341654 0.0851575 -0.0382913 -0.358449 -0.157441 0 -0.201079 0.423307 0.149051 0 0.0381063 -0.0898543 0.0684016 0zm-0.0241811 -0.113366l0.0164291 -0.0388543 0.00219291 0.0388543 -0.018622 0zm0.648799 -0.220087l-0.0803858 0.423307 0.13739 0 0.0803937 -0.423307 -0.137398 0zm0.359087 0.14926l-0.00132677 -0.00466929 -0.00134646 -0.00468898 -0.0013622 -0.00472441 -0.00139764 -0.00481496 -0.0389843 -0.130362 -0.146921 0 -0.0797677 0.423307 0.130567 0 0.0229724 -0.122102 0.00111811 -0.00599213 0.00110236 -0.00595669 0.00109449 -0.00593307 0.00108661 -0.00592126 0.00107087 -0.00588583 0.00105512 -0.00584252 0.00104331 -0.00580709 0.00103543 -0.00577559 0.00100787 -0.00573622 0.000996063 -0.00566142 0.000980315 -0.00561811 0.000909449 -0.00524016 0.000161417 0.000582677 0.00127165 0.00442126 0.00127953 0.00445276 0.00130709 0.00449213 0.00131496 0.00452362 0.00134252 0.00459449 0.0013622 0.00464567 0.00138189 0.00471654 0.00140945 0.00477953 0.00142913 0.00485039 0.00145669 0.00493701 0.00151969 0.00514961 0.0430669 0.139327 0.133134 0 0.0797638 -0.423307 -0.131142 0 -0.024122 0.128429 -0.000980315 0.00547244 -0.000929134 0.00534252 -0.000909449 0.00527165 -0.00088189 0.00519291 -0.000870079 0.00514567 -0.000838583 0.00511417 -0.000811024 0.0050315 -9.05512e-005 0.000562992 -0.000685039 -0.00249213 -0.00127559 -0.0045748 -0.00129134 -0.0046063 -0.00130709 -0.00462992zm-1.81717 0.925783l0.138016 0 0.0272992 -0.146157 0.131815 0 0.0237008 -0.121894 -0.132488 0 0.00640945 -0.0327953 0.140504 0 0.0236496 -0.122461 -0.278512 0 -0.0803937 0.423307zm0.486398 -0.139713l0.00108661 0.00130315 0.0011811 0.00184646 0.00125197 0.00255118 0.00125591 0.0033622 0.00118898 0.00422835 0.00106299 0.00512992 0.000889764 0.00605118 0.000728346 0.00731496 0.000838583 0.00892126 0.000838583 0.00856693 0.000826772 0.00812598 0.000814961 0.00767717 0.000799213 0.00724803 0.000799213 0.0068189 0.000779528 0.0063937 0.000779528 0.0059685 0.000759843 0.00553937 0.000755906 0.00514567 0.000751969 0.00475197 0.000755906 0.00435433 0.000748031 0.00398819 0.000771654 0.00366929 0.00080315 0.00338976 0.00483071 0.0173661 0.136059 0 0.00795276 0 0.281236 0 0.0236496 -0.122461 -0.151795 0 0.00640551 -0.0327953 0.134795 0 0.0237047 -0.121894 -0.135874 0 0.00465354 -0.0236969 0.14337 0 0.0236457 -0.122461 -0.28135 0 -0.0777913 0.409614 -0.00633858 -0.0162165 -0.000854331 -0.00291339 -0.000968504 -0.00414173 -0.000988189 -0.00510236 -0.000976378 -0.00587795 -0.000948819 -0.00651181 -0.000925197 -0.00704331 -0.000893701 -0.00746063 -0.000885827 -0.00779134 -0.000870079 -0.00800787 -0.000862205 -0.00815748 -0.000862205 -0.00821654 -0.00088189 -0.00819685 -0.000897638 -0.00808268 -0.000925197 -0.00789764 -0.000952756 -0.00759449 -0.000862205 -0.00641732 -0.00102756 -0.00640551 -0.00120472 -0.00624803 -0.00138976 -0.00608661 -0.00161024 -0.00593701 -0.00184252 -0.00577559 -0.00211417 -0.00562598 -0.00240551 -0.00544882 -0.00272835 -0.00526772 -0.00308268 -0.00506693 -0.00103543 -0.00144882 0.00157874 -0.000791339 0.00902756 -0.00520866 0.0086063 -0.00576772 0.0081378 -0.00633465 0.00762205 -0.00692913 0.00706693 -0.00755512 0.00641732 -0.00818504 0.00570472 -0.0087874 0.00493307 -0.0093937 0.00411811 -0.00997244 0.00324016 -0.0105236 0.00233465 -0.0110315 0.00140945 -0.0115157 0.000468504 -0.011937 -0.000291339 -0.00872047 -0.000858268 -0.00837008 -0.00142126 -0.00806693 -0.00194882 -0.00775197 -0.00248031 -0.00743307 -0.00296063 -0.00707874 -0.0034252 -0.00671654 -0.00385039 -0.00633858 -0.00425591 -0.0059685 -0.00459449 -0.00556693 -0.00491732 -0.00517717 -0.00518898 -0.00478346 -0.00544488 -0.00442126 -0.00565748 -0.00403543 -0.00583071 -0.00367323 -0.00575591 -0.00319685 -0.00640945 -0.00333071 -0.00685433 -0.00309055 -0.007 -0.00273228 -0.00710236 -0.00238976 -0.00718504 -0.00208661 -0.00725984 -0.00179921 -0.00732283 -0.00154331 -0.00733071 -0.00129134 -0.00735039 -0.00108661 -0.0073622 -0.000877953 -0.00733071 -0.000700787 -0.00727953 -0.000527559 -0.00722441 -0.000389764 -0.00714173 -0.000251969 -0.00703937 -0.000145669 -0.00690945 -3.93701e-005 -0.00812992 3.93701e-005 -0.00809843 0.000141732 -0.00805512 0.000232283 -0.0079685 0.000322835 -0.00788976 0.000401575 -0.00777953 0.000492126 -0.00765748 0.000566929 -0.00749213 0.00065748 -0.00733465 0.000720472 -0.00714173 0.000807087 -0.00694882 0.000874016 -0.00670472 0.000956693 -0.0064685 0.00102362 -0.00621654 0.00110236 -0.00594094 0.00117323 -0.0182598 0.00405118 -0.0786496 0.412587 0.136858 0 0.0272992 -0.144453 0.000818898 0 0.00453937 0.000106299 0.0037126 0.000307087 0.00309055 0.000488189 0.0025 0.000622047 0.00191339 0.00069685 0.00144882 0.000732283 0.00116929 0.000807087 0.00107874 0.000980315zm0.0460827 -0.165512l0.00202756 0.00120079 0.00164961 0.00122441 0.0013189 0.00122441 0.00103543 0.00122835 0.000822835 0.00126772 0.000645669 0.00137008 0.000511811 0.00158661 0.000350394 0.0019252 0.000141732 0.00237795 -0.000220472 0.00385827 -0.000614173 0.00357874 -0.000972441 0.00330315 -0.00131102 0.00306693 -0.00165354 0.00287402 -0.00201181 0.00273228 -0.00238976 0.00258268 -0.00276772 0.00243307 -0.00316929 0.00224803 -0.00358268 0.00206693 -0.00397244 0.00183071 -0.00433858 0.00156693 -0.00470079 0.00126378 -0.00502362 0.000940945 -0.00533071 0.00057874 -0.00594882 0.000216535 -0.0055315 0 0.0102559 -0.0529252 0.00302756 -0.000169291 0.00404331 -0.000129921 0.00433071 -3.93701e-005 0.00423228 0.000106299 0.00387795 0.000326772 0.00365354 0.000531496 0.00340157 0.000720472 0.00309055 0.000885827 0.00274409 0.00101969 0.00237795 0.00112598zm0.747189 0.0280748l-0.135874 0 0.00465354 -0.0236969 0.14337 0 0.0236457 -0.122461 -0.28135 0 -0.0803937 0.423307 0.289189 0 0.0236496 -0.122461 -0.151795 0 0.00640551 -0.0327953 0.134795 0 0.0237047 -0.121894zm-0.0173858 0.266799l0.0225945 0.00499606 0.00447244 0.000862205 0.0049252 0.000822835 0.00538583 0.000807087 0.00584252 0.000775591 0.0062874 0.000748031 0.00672835 0.000704724 0.00715748 0.000673228 0.00753937 0.000606299 0.00790945 0.000562992 0.00827559 0.000496063 0.00861024 0.00042126 0.00891339 0.000338583 0.00920472 0.000255906 0.00945669 0.00015748 0.00971654 5.90551e-005 0.00835039 -4.72441e-005 0.00817323 -0.000141732 0.00800394 -0.000240157 0.00784646 -0.000330709 0.00768504 -0.000433071 0.00752756 -0.000527559 0.00738189 -0.000629921 0.00725591 -0.000728346 0.00708661 -0.00084252 0.00695276 -0.000929134 0.0068189 -0.00104724 0.00669685 -0.00114961 0.00655906 -0.00125984 0.00644488 -0.00136614 0.00631496 -0.00148425 0.00621654 -0.00159055 0.00608661 -0.00171654 0.00597244 -0.00182283 0.00585433 -0.00194094 0.00575984 -0.00205512 0.00565748 -0.00218504 0.00555118 -0.00229528 0.00543307 -0.00241339 0.00535433 -0.00252756 0.00526772 -0.00266929 0.00516142 -0.00278346 0.00504724 -0.0028937 0.00497244 -0.00301181 0.00488583 -0.0031378 0.00479921 -0.00325197 0.00470079 -0.00336614 0.00466929 -0.0035 0.00483858 -0.0038622 0.00475591 -0.00402756 0.00463386 -0.00418504 0.00454724 -0.00433858 0.00441732 -0.0045 0.00429528 -0.00462992 0.0041811 -0.00478346 0.00407087 -0.00493701 0.00393307 -0.00508268 0.00379921 -0.0052126 0.00365748 -0.00534646 0.00353543 -0.00548819 0.00338976 -0.00562992 0.00324016 -0.00573622 0.00309055 -0.00586614 0.00295669 -0.00600394 0.00279528 -0.0061378 0.00262992 -0.00623622 0.00247244 -0.00635039 0.00231496 -0.00647244 0.00214173 -0.00658661 0.00197244 -0.00667717 0.00180315 -0.00679921 0.00162992 -0.00690157 0.00144094 -0.00701181 0.00126772 -0.00709449 0.000413386 -0.00277953 -0.000311024 0.00387795 -0.000393701 0.00694488 -0.000240157 0.00697638 -7.87402e-005 0.00709055 0.000185039 0.00934646 0.00057874 0.00931496 0.00096063 0.00916929 0.00134646 0.00901969 0.00171654 0.00885039 0.00209843 0.00868504 0.00247244 0.00850394 0.00285433 0.0083189 0.0032126 0.00809843 0.00359055 0.00788976 0.00395276 0.00766142 0.00432283 0.00742126 0.00467323 0.00716142 0.00503937 0.00690551 0.00537795 0.00661417 0.00573228 0.00633071 0.00605512 0.00601575 0.00638976 0.00570079 0.0067126 0.00536614 0.00703543 0.0050315 0.00733071 0.00466929 0.00763386 0.00430315 0.00790551 0.0039252 0.00819685 0.00355906 0.00845669 0.00314961 0.00872441 0.00275984 0.00896457 0.00233858 0.00920866 0.00193701 0.00943701 0.00150787 0.00966142 0.00109055 0.00988189 0.000653543 0.00988189 0.000220472 0.000909449 0 0.00583071 -7.08661e-005 0.00589764 -0.000192913 0.00585039 -0.000322835 0.00580315 -0.000448819 0.00575591 -0.000574803 0.00569685 -0.000708661 0.00562205 -0.000822835 0.0056063 -0.000948819 0.00552362 -0.00108661 0.00545276 -0.00119291 0.00540157 -0.0013189 0.00534646 -0.00143307 0.00527953 -0.00156299 0.0052126 -0.00167323 0.00514567 -0.0017874 0.00511024 -0.00190945 0.00501575 -0.00203937 0.00494094 -0.00212992 0.00487402 -0.00225197 0.00480315 -0.00235827 0.00474016 -0.00247638 0.00465748 -0.0025748 0.00456693 -0.0026811 0.00451969 -0.0027874 0.00444882 -0.00291732 0.00433858 -0.003 0.00425197 -0.00309055 0.00420866 -0.00320472 0.00410236 -0.00330315 0.00402756 -0.0033937 0.00394094 -0.00349606 0.0039685 -0.00368504 0.00448819 -0.00451969 0.00429921 -0.00459449 0.00416142 -0.00473228 0.00403937 -0.00486614 0.00390157 -0.005 0.00376378 -0.00511417 0.00362992 -0.00523228 0.00351181 -0.0053622 0.00335433 -0.00547638 0.00322441 -0.00556299 0.00308661 -0.00567717 0.00296063 -0.00577953 0.00281102 -0.00588189 0.00267717 -0.00595669 0.00253543 -0.00605512 0.00240945 -0.00614567 0.00225984 -0.00624016 0.00211811 -0.00629528 0.0019685 -0.00636614 0.00184252 -0.00644488 0.00169291 -0.00652756 0.00155118 -0.00657087 0.00140945 -0.00663386 0.00127165 -0.00670472 0.00111024 -0.00676378 0.000972441 -0.00679134 0.000822835 -0.00684646 0.000681102 -0.00688189 0.000531496 -0.00694094 0.000377953 -0.00696457 0.000224409 -0.00699606 8.66142e-005 -0.00711024 -0.000192913 -0.00962992 -0.000559055 -0.00952362 -0.000929134 -0.00935827 -0.00129921 -0.00918504 -0.0016811 -0.00900394 -0.00204331 -0.00879528 -0.00241732 -0.00859843 -0.0027874 -0.00838976 -0.00316929 -0.00816929 -0.00352756 -0.00792126 -0.00389764 -0.00768504 -0.00426772 -0.00742913 -0.00464173 -0.00716929 -0.00499213 -0.00687008 -0.00534646 -0.00657874 -0.00569685 -0.00627165 -0.00604724 -0.00595669 -0.00637008 -0.00562205 -0.00670866 -0.0052874 -0.00701575 -0.00491732 -0.00732677 -0.00457087 -0.00763386 -0.00419291 -0.00791339 -0.00381102 -0.00818504 -0.00342913 -0.00847244 -0.00303937 -0.00871654 -0.00264173 -0.00898425 -0.00225591 -0.0092126 -0.00183465 -0.00945276 -0.00144488 -0.00969291 -0.0010315 -0.0099252 -0.000622047 -0.0100433 -0.000200787 -0.00594882 6.69291e-005 -0.00581496 0.000192913 -0.00577165 0.000318898 -0.00570866 0.000448819 -0.00568504 0.000570866 -0.00563386 0.000708661 -0.00557087 0.000822835 -0.0055 0.000948819 -0.0054685 0.00106299 -0.00542913 0.00119685 -0.0053622 0.00131496 -0.0052874 0.00143701 -0.00524409 0.00155118 -0.00519291 0.00167717 -0.00512205 0.00179134 -0.00503937 0.00190551 -0.00498425 0.00201181 -0.0049252 0.0021378 -0.0048622 0.00224409 -0.00477953 0.00235433 -0.00471654 0.00246063 -0.00464173 0.0025748 -0.00459843 0.00268898 -0.00448819 0.00279921 -0.00440551 0.00287795 -0.00435039 0.003 -0.00428346 0.0031063 -0.00417323 0.00320079 -0.00411024 0.00329134 -0.0040315 0.00341339 -0.00394882 0.0035 -0.0038937 0.0036378 -0.00452756 0.00447638 -0.00440551 0.00462992 -0.00427953 0.00477165 -0.00412205 0.00488976 -0.00401181 0.00501181 -0.00387402 0.00515748 -0.00373622 0.00525984 -0.00359449 0.00537402 -0.00346063 0.0054685 -0.00332677 0.00559449 -0.00319685 0.00569291 -0.00304724 0.0057874 -0.00291339 0.00588189 -0.00277165 0.00598425 -0.00263386 0.00606693 -0.00248031 0.00614173 -0.00234646 0.00620866 -0.00220472 0.00630709 -0.00206299 0.00638189 -0.00190551 0.00644094 -0.00177165 0.00650394 -0.00161417 0.00658661 -0.00147244 0.0066378 -0.00130709 0.00667717 -0.00117717 0.00672441 -0.000515748 0.00346063 0.000433071 -0.00647638 0.000307087 -0.00754724 0.000102362 -0.00761811 -7.08661e-005 -0.00607874 -0.000204724 -0.00593701 -0.00034252 -0.00582283 -0.000472441 -0.00573622 -0.00061811 -0.00563386 -0.000740157 -0.0055 -0.000877953 -0.00542126 -0.00101181 -0.0053189 -0.00114961 -0.00522047 -0.00127165 -0.00511417 -0.00140945 -0.00501181 -0.0015315 -0.00490945 -0.00167717 -0.00482677 -0.00179134 -0.00470866 -0.00192126 -0.00460236 -0.00204331 -0.00451181 -0.00217323 -0.00441339 -0.00228346 -0.00429528 -0.00240945 -0.00420472 -0.00250787 -0.00408268 -0.00264173 -0.00401575 -0.00274016 -0.00388583 -0.00285039 -0.00379134 -0.00295276 -0.00368898 -0.00305118 -0.00358268 -0.00314961 -0.00348425 -0.00324016 -0.00338189 -0.00332283 -0.00328346 -0.0034252 -0.00318898 -0.00349213 -0.00309055 -0.00359449 -0.00301181 -0.00376772 -0.00298819 -0.00382677 -0.00280709 -0.00379921 -0.00262992 -0.00387795 -0.0025315 -0.00393701 -0.00242126 -0.00401575 -0.00233465 -0.00409843 -0.00223622 -0.00415748 -0.00213386 -0.00420866 -0.0020315 -0.0042874 -0.00194094 -0.00435827 -0.00184646 -0.00441732 -0.00174803 -0.00447244 -0.00165354 -0.00454724 -0.00156693 -0.00459449 -0.00146457 -0.00465748 -0.00138583 -0.00472047 -0.0012874 -0.00477165 -0.00120472 -0.00484646 -0.00112598 -0.00490945 -0.00103543 -0.00494882 -0.000948819 -0.00501181 -0.000870079 -0.00508268 -0.000787402 -0.00512992 -0.000704724 -0.00518504 -0.000625984 -0.00524016 -0.000551181 -0.00530709 -0.000476378 -0.00538583 -0.000401575 -0.00541732 -0.000314961 -0.00547638 -0.000251969 -0.00553937 -0.000173228 -0.00559843 -0.000110236 -0.00562992 -2.75591e-005 -0.00743307 2.75591e-005 -0.00740157 0.000106299 -0.00736614 0.000169291 -0.00732283 0.000240157 -0.00729921 0.00030315 -0.00725591 0.000377953 -0.00723622 0.000440945 -0.00716929 0.000523622 -0.00713386 0.000574803 -0.00709843 0.00065748 -0.00703937 0.000716535 -0.00698031 0.000795276 -0.00694094 0.000854331 -0.00688189 0.000933071 -0.00683071 0.000996063 -0.0205512 0.00326772 -0.076752 0.404815zm0.273795 -0.248441l0.00096063 0.0081063 0.00034252 0.00908661 -0.000125984 0.00698425 -0.000374016 0.00697638 -0.000629921 0.00677559 -0.000858268 0.00656299 -0.00109843 0.0063622 -0.00132677 0.00616929 -0.00155906 0.00598031 -0.00176378 0.00579528 -0.00198819 0.00558268 -0.00220866 0.00543307 -0.0024252 0.00526378 -0.00262992 0.00509055 -0.00285039 0.00493307 -0.00305906 0.00479528 -0.00327165 0.0046378 -0.00334252 0.0043189 -0.00344094 0.0038622 -0.00372835 0.00367717 -0.00401969 0.00347638 -0.00427165 0.00327165 -0.00453937 0.00305118 -0.00477165 0.00283858 -0.00499606 0.00259449 -0.00518898 0.00235433 -0.00537795 0.00209449 -0.00555118 0.00184646 -0.0056811 0.0015748 -0.0057874 0.00129921 -0.00590551 0.00101575 -0.00597244 0.000740157 -0.00601969 0.000444882 -0.00622047 0.00015748 -0.00467717 -3.14961e-005 -0.000846457 -1.1811e-005 0.0367717 -0.192957 0.00208268 -7.08661e-005 0.00394094 -7.48031e-005 0.00414567 -2.3622e-005 0.00906299 0.000307087 0.00812205 0.000870079 0.00743701 0.00140945 0.00676378 0.00191339 0.0060748 0.0023622 0.00543307 0.00279134 0.00483465 0.00320472 0.00430315 0.00362992 0.00380709 0.00407087 0.00337008 0.00458268 0.00295276 0.00517717 0.00251969 0.00583071 0.00204724 0.00654724 0.00153543 0.0073189zm0.324 0.14311l-0.00541732 -0.00134646 -0.00477165 -0.00176378 -0.00422441 -0.00215748 -0.00376772 -0.00253543 -0.00338583 -0.00294094 -0.00306693 -0.00338976 -0.00279921 -0.00391732 -0.00250787 -0.00446457 -0.00220866 -0.00506299 -0.00188189 -0.0056811 -0.00151575 -0.00629134 -0.00111024 -0.00687795 -0.000685039 -0.00744882 -0.000232283 -0.00816535 3.14961e-005 -0.00346457 0.000125984 -0.00371654 0.000204724 -0.00379134 0.000295276 -0.00385433 0.000366142 -0.00392126 0.00046063 -0.00394488 0.000535433 -0.00399606 0.000622047 -0.00402362 0.000700787 -0.00405118 0.000779528 -0.00405118 0.000850394 -0.00403937 0.000937008 -0.00403937 0.00101181 -0.00403937 0.00108268 -0.00398425 0.00115748 -0.00396063 0.00123622 -0.00393307 0.00129528 -0.00388976 0.00136614 -0.00380709 0.00142126 -0.00373228 0.00149213 -0.00365354 0.00155512 -0.00358268 0.0016063 -0.00347244 0.00166535 -0.00337402 0.00172441 -0.00327165 0.00175984 -0.00314961 0.00180315 -0.00300394 0.00183465 -0.00286614 0.00188189 -0.00272835 0.00189764 -0.00257087 0.00191732 -0.00240157 0.00192913 -0.00223622 0.00189764 -0.00200787 0.00224016 -0.00216142 0.00235039 -0.00206299 0.00240945 -0.00194094 0.0024685 -0.00180709 0.00249213 -0.00165748 0.00252756 -0.00150787 0.00257874 -0.00137402 0.0026378 -0.00123622 0.0026811 -0.0011063 0.00270079 -0.000948819 0.00276772 -0.000814961 0.00283858 -0.000673228 0.00287795 -0.000535433 0.00294094 -0.000377953 0.00302362 -0.00023622 0.00287795 -7.08661e-005 0.00720079 0.000346457 0.00605118 0.000944882 0.00520472 0.00144094 0.00447638 0.00186614 0.00388189 0.00224409 0.0034252 0.00263386 0.00307874 0.00307087 0.00279134 0.00355906 0.00252362 0.00409055 0.00224016 0.00465354 0.00194488 0.0052126 0.00161417 0.00573228 0.00126378 0.00622047 0.000913386 0.00666142 0.000543307 0.00701969 0.000181102 0.00744488 -3.93701e-005 0.00326378 -0.00011811 0.0035315 -0.000192913 0.00364173 -0.000271654 0.00372835 -0.000358268 0.00382283 -0.000429134 0.00392126 -0.000515748 0.00398031 -0.000582677 0.00402362 -0.000669291 0.00403937 -0.000748031 0.0041063 -0.000830709 0.00412992 -0.000897638 0.00412992 -0.000976378 0.00411811 -0.00104724 0.00411417 -0.00112598 0.00408661 -0.00119291 0.00404724 -0.00127165 0.00398819 -0.00133465 0.00394882 -0.00141339 0.00388583 -0.0014685 0.00380709 -0.00153543 0.00370079 -0.00158661 0.00361024 -0.00165748 0.00349606 -0.00169291 0.00336614 -0.00174803 0.00321654 -0.00179921 0.00309843 -0.00183858 0.00294094 -0.00185039 0.00275197 -0.00188583 0.0025748 -0.00190551 0.00240551 -0.00191732 0.0022126 -0.00191339 0.00201575 -0.00204724 0.00194882 -0.00216929 0.00189764 -0.00224803 0.0017874 -0.00230315 0.00167717 -0.00237795 0.00155906 -0.00243701 0.00145276 -0.00249213 0.00133071 -0.00249606 0.00118504 -0.00254331 0.00105906 -0.00258661 0.000933071 -0.00259449 0.000791339 -0.00259055 0.000649606 -0.00259843 0.0005 -0.00262598 0.000370079 -0.00261417 0.000220472 -0.00276378 8.66142e-005 -0.00720472 -0.000322835 -0.00611024 -0.000858268zm0.478303 0.10772l0.0685 -0.145028 0.00194488 -0.00402362 0.00202362 -0.00420079 0.00154331 -0.00323622 -3.14961e-005 0.000181102 -0.000633858 0.00412598 -0.025252 0.160142 0.134642 0 0.0590394 -0.423307 -0.168457 0 -0.0558898 0.124961 -0.00150394 0.00331102 -0.00155512 0.00345276 -0.00158661 0.00351969 -0.00161024 0.00358661 -0.00164961 0.00366929 -0.00167323 0.00375591 -0.00170866 0.00382677 -0.0017126 0.00388189 -0.00173622 0.00392913 -0.00176378 0.00401181 -0.00177953 0.00406693 -0.0017874 0.00411811 -0.00181102 0.00417323 -0.000173228 0.000409449 -0.000251969 -0.00443701 -0.000228346 -0.00397244 -0.000228346 -0.00393307 -0.000228346 -0.0038937 -0.000216535 -0.00381102 -0.000212598 -0.00376378 -0.000204724 -0.00372441 -0.00019685 -0.00365748 -0.000181102 -0.00361024 -0.000181102 -0.00354724 -0.00015748 -0.00343701 -0.00531496 -0.132886 -0.165665 0 -0.104988 0.423307 0.130264 0 0.0354724 -0.152642 0.000929134 -0.00421654 0.000566929 -0.00257874 0.00841339 0.151476 0.107232 0z" />
   <path
   id="_131616144"
   class="fil8"
   d="M6.77153 3.90534l0.097248 0 0.0272992 -0.146157 0.131941 0 0.0159213 -0.0818937 -0.132508 0 0.0142205 -0.0727953 0.140469 0 0.0159252 -0.0824606 -0.23772 0 -0.0727953 0.383307zm0.301984 0l0.0961102 0 0.0272992 -0.144453 0.0176299 0c0.0295709,0 0.0443583,0.0108071 0.0477677,0.0545984 0.00455118,0.0489055 0.0085315,0.0784803 0.0119449,0.0898543l0.0995236 0c-0.0073937,-0.0159252 -0.0108071,-0.0716575 -0.0159252,-0.110331 -0.00398031,-0.0329843 -0.0130787,-0.0562992 -0.034122,-0.0671063l0.000570866 -0.00227559c0.0494764,-0.0170591 0.0847362,-0.0500433 0.0847362,-0.106913 0,-0.039811 -0.0210433,-0.0654016 -0.0483386,-0.079622 -0.0295748,-0.0164921 -0.0693858,-0.0199016 -0.104642,-0.0199016 -0.0420866,0 -0.0841693,0.00398031 -0.110898,0.0102362l-0.0716575 0.375913zm0.154685 -0.307669c0.00568898,-0.0011378 0.0147874,-0.00227559 0.028437,-0.00227559 0.0278661,0 0.051752,0.0119449 0.051752,0.0381024 0,0.0335551 -0.0295709,0.0551654 -0.0676772,0.0551654l-0.0301417 0 0.0176299 -0.0909921zm0.468614 0.0705197l-0.135921 0 0.0125118 -0.0636969 0.143315 0 0.0159213 -0.0824606 -0.240559 0 -0.0727953 0.383307 0.248524 0 0.0159252 -0.0824606 -0.151846 0 0.0142165 -0.0727953 0.134783 0 0.0159252 -0.0818937zm0.305965 0l-0.135921 0 0.0125118 -0.0636969 0.143315 0 0.0159213 -0.0824606 -0.240559 0 -0.0727953 0.383307 0.248524 0 0.0159252 -0.0824606 -0.151846 0 0.0142165 -0.0727953 0.134783 0 0.0159252 -0.0818937zm-1.04443 0.799031l0.00455118 0.0898543 0.102366 0 -0.0409449 -0.383307 -0.126823 0 -0.182079 0.383307 0.104165 0 0.0381063 -0.0898543 0.100657 0zm-0.0733622 -0.0733661l0.0295748 -0.0699488c0.00966535,-0.0216102 0.0204724,-0.0540276 0.0301417,-0.0779134l0.0011378 0c0.00227165,0.0238858 0.00340945,0.0557323 0.00511811,0.0773465l0.00398031 0.0705157 -0.0699528 0zm0.208055 0.141039c0.0188622,0.0130827 0.0575315,0.0268268 0.117248,0.0279646 0.0847362,0 0.163787,-0.0404764 0.163787,-0.133744 0,-0.0454961 -0.0307126,-0.0767717 -0.0773465,-0.100657 -0.0290039,-0.0164921 -0.0545945,-0.028437 -0.0545945,-0.0466339 0,-0.0164921 0.0164921,-0.0301417 0.0511811,-0.0301417 0.0318504,-0.0011378 0.0602835,0.00966535 0.0733661,0.0159213l0.0295709 -0.0813228c-0.0181969,-0.0085315 -0.0454961,-0.0182008 -0.0961102,-0.0182008 -0.0892874,0 -0.160374,0.0483425 -0.160374,0.129665 0,0.0528898 0.0437874,0.0824646 0.0807559,0.102366 0.0329843,0.017063 0.0500433,0.0278701 0.0500433,0.0466339 0,0.022748 -0.0244528,0.0329882 -0.0511811,0.0324173 -0.0369646,0 -0.0710906,-0.0108031 -0.0944055,-0.0238858l-0.0319409 0.0796181zm0.487472 -0.361126l-0.0727913 0.383307 0.0966772 0 0.0727953 -0.383307 -0.0966811 0zm0.185402 0.383307l0.0199016 -0.10578c0.0119449,-0.0636929 0.0221811,-0.124547 0.0267323,-0.16265l0.00170472 0c0.0108031,0.051185 0.0221772,0.0892874 0.0381024,0.143315l0.0386732 0.125114 0.101799 0 0.0722244 -0.383307 -0.0904252 0 -0.0210433 0.112035c-0.0102362,0.057437 -0.0164921,0.103504 -0.0181969,0.14502l-0.00170472 0c-0.00910236,-0.0460669 -0.0204764,-0.0904252 -0.0352598,-0.141039l-0.0346929 -0.116016 -0.115445 0 -0.0722283 0.383307 0.0898583 0zm-1.63589 0.651736l0.097248 0 0.0272992 -0.146157 0.131941 0 0.0159213 -0.0818937 -0.132508 0 0.0142205 -0.0727953 0.140469 0 0.0159252 -0.0824606 -0.23772 0 -0.0727953 0.383307zm0.301984 0l0.0961102 0 0.0272992 -0.144453 0.0176299 0c0.0295709,0 0.0443583,0.0108071 0.0477677,0.0545984 0.00455118,0.0489055 0.0085315,0.0784803 0.0119449,0.0898543l0.0995236 0c-0.0073937,-0.0159252 -0.0108071,-0.0716575 -0.0159252,-0.110331 -0.00398031,-0.0329843 -0.0130787,-0.0562992 -0.034122,-0.0671063l0.000570866 -0.00227559c0.0494764,-0.0170591 0.0847362,-0.0500433 0.0847362,-0.106913 0,-0.039811 -0.0210433,-0.0654016 -0.0483386,-0.079622 -0.0295748,-0.0164921 -0.0693858,-0.0199016 -0.104642,-0.0199016 -0.0420866,0 -0.0841693,0.00398031 -0.110898,0.0102362l-0.0716575 0.375913zm0.154685 -0.307669c0.00568898,-0.0011378 0.0147874,-0.00227559 0.028437,-0.00227559 0.0278661,0 0.051752,0.0119449 0.051752,0.0381024 0,0.0335551 -0.0295709,0.0551654 -0.0676772,0.0551654l-0.0301417 0 0.0176299 -0.0909921zm0.468614 0.0705197l-0.135921 0 0.0125118 -0.0636969 0.143315 0 0.0159213 -0.0824606 -0.240559 0 -0.0727953 0.383307 0.248524 0 0.0159252 -0.0824606 -0.151846 0 0.0142165 -0.0727953 0.134783 0 0.0159252 -0.0818937zm0.305965 0l-0.135921 0 0.0125118 -0.0636969 0.143315 0 0.0159213 -0.0824606 -0.240559 0 -0.0727953 0.383307 0.248524 0 0.0159252 -0.0824606 -0.151846 0 0.0142165 -0.0727953 0.134783 0 0.0159252 -0.0818937zm0.0301417 0.231461c0.0164921,0.00398425 0.0585787,0.00862598 0.10976,0.00862598 0.0875827,0 0.143315,-0.0154488 0.188244,-0.0501417 0.0472008,-0.0363937 0.0796181,-0.0983858 0.0796181,-0.174591 0,-0.0602835 -0.0216102,-0.0995236 -0.0568701,-0.126823 -0.0346929,-0.0261575 -0.0813268,-0.0375315 -0.139335,-0.0375315 -0.0386732,0 -0.0762047,0.00284252 -0.110898,0.00852756l-0.0705197 0.371933zm0.155256 -0.301413c0.00625591,-0.0011378 0.0142205,-0.00170472 0.0272992,-0.00170472 0.0557323,0 0.0892874,0.0295709 0.0892874,0.0870118 0,0.0426535 -0.0119449,0.0773425 -0.034122,0.104642 -0.0221811,0.0267283 -0.0591457,0.0415157 -0.0966811,0.0415157 -0.0142165,0 -0.023315,-0.000570866 -0.0295709,-0.00170472l0.0437874 -0.22976zm0.418567 0.313453c0.0591457,0 0.109193,-0.0205669 0.146157,-0.0558268 0.0432244,-0.0420866 0.0676772,-0.108055 0.0676772,-0.178575 0,-0.0961102 -0.0585748,-0.161512 -0.159236,-0.161512 -0.0580079,0 -0.108055,0.0204724 -0.14502,0.0557323 -0.0443622,0.0426535 -0.0699528,0.108622 -0.0699528,0.178575 0,0.0926969 0.0602835,0.161606 0.159807,0.161606l0.000566929 0zm0.0136496 -0.0808504c-0.0477717,0 -0.0705197,-0.0329843 -0.0705197,-0.0830315 0,-0.0432205 0.0159252,-0.0989528 0.0432244,-0.126823 0.0153543,-0.0153543 0.034689,-0.0244528 0.0568701,-0.0244528 0.0500433,0 0.0671063,0.0381024 0.0671063,0.0830315 0,0.040378 -0.0147874,0.100091 -0.0426535,0.127957 -0.0142165,0.0142205 -0.0335551,0.0233189 -0.0534567,0.0233189l-0.000570866 0zm0.630693 0.0745l0.0534606 -0.383307 -0.132508 0 -0.0506181 0.113173c-0.0159213,0.0352598 -0.0381024,0.0847362 -0.0551614,0.133646l-0.00227559 0c0.000566929,-0.0489094 -0.00341339,-0.0955433 -0.00511811,-0.133079l-0.00455118 -0.11374 -0.130803 0 -0.0950669 0.383307 0.088811 0 0.0318504 -0.137059c0.00966535,-0.0432205 0.0210394,-0.100661 0.0329843,-0.158098l0.0011378 0c0.00170472,0.0563031 0.00454724,0.112602 0.00682283,0.154118l0.0073937 0.133079 0.0756378 0 0.063126 -0.133646c0.0210433,-0.0432244 0.0454961,-0.0989567 0.068815,-0.153551l0.0011378 0c-0.0119449,0.063126 -0.0204764,0.114311 -0.0272992,0.158098l-0.0216102 0.137059 0.0938346 0z" />
  </g>
 </g>
</svg>